<svg width="117" height="22" viewBox="0 0 117 22" fill="none" xmlns="http://www.w3.org/2000/svg">
<path id="Vector" d="M56.4735 11.3867C56.4735 11.3867 58.3949 15.6962 58.6822 16.3367C58.9276 16.8694 58.6942 17.2285 58.0058 17.4739C57.3534 17.7133 56.3598 17.839 55.6715 17.7133C55.2824 17.6415 55.061 17.45 54.9173 17.0849L53.5826 13.4876L52.7865 14.1819C52.7865 14.1819 52.4154 16.1092 52.3136 16.6C52.1161 17.5757 51.769 17.6954 51.0328 17.7552C50.4163 17.8031 49.692 17.6894 49.0815 17.3961C48.6086 17.1687 48.3513 16.9173 48.5548 16.1212L51.2901 2.07331C51.4577 1.22338 51.5954 0.852278 52.8104 0.894176C53.4988 0.912132 54.2589 1.10965 54.6839 1.41491C55.0969 1.70221 55.1208 2.19901 55.055 2.53419C54.7078 4.35377 53.6185 9.91427 53.6185 9.91427C53.6185 9.91427 56.3419 7.2268 56.8566 6.73599C57.3534 6.26912 57.7185 5.98781 58.0717 5.97583C58.6822 5.95788 59.4483 6.20927 59.9272 6.58037C60.5556 7.06519 60.6454 7.69965 60.1666 8.14257L56.4556 11.3927L56.4735 11.3867ZM78.7814 16.4324C78.8053 16.7676 78.7514 17.037 78.1768 17.2285C76.8481 17.6714 75.627 17.845 74.2623 17.8031C70.9943 17.7014 69.3962 15.8459 69.4919 12.8591C69.6056 9.38156 72.0537 5.79029 76.2316 5.92795C78.5898 6.00576 80.152 7.47819 80.1101 9.62697C80.0144 12.6137 77.3868 13.721 73.0952 13.4457C73.1311 13.727 73.2388 14.0083 73.4663 14.2537C73.8493 14.6188 74.4718 14.8762 75.3397 14.9002C76.1837 14.9181 76.878 14.7445 77.297 14.6368C77.8297 14.4931 78.0033 14.6009 78.3265 15.0259C78.524 15.2832 78.7395 15.8698 78.7814 16.4384V16.4324ZM73.5321 10.6804C75.657 10.7941 76.5787 10.4051 76.6027 9.60901V9.58507C76.6206 9.1182 76.3034 8.75908 75.6989 8.74112C74.4359 8.69922 73.7057 9.75266 73.5321 10.6804V10.6804ZM47.5193 16.4324C47.5432 16.7676 47.4834 17.037 46.9148 17.2285C45.586 17.6714 44.3649 17.845 43.0003 17.8031C39.7322 17.7014 38.1341 15.8459 38.2298 12.8591C38.3436 9.38156 40.7916 5.79029 44.9695 5.92795C47.3278 6.00576 48.89 7.47819 48.8481 9.62697C48.7523 12.6137 46.1247 13.721 41.8331 13.4457C41.869 13.727 41.9767 14.0083 42.2042 14.2537C42.5873 14.6188 43.2098 14.8762 44.0776 14.9002C44.9216 14.9181 45.6159 14.7445 46.0349 14.6368C46.5676 14.4931 46.7412 14.6009 47.0644 15.0259C47.2619 15.2832 47.4774 15.8698 47.5193 16.4384V16.4324ZM42.27 10.6804C44.3949 10.7941 45.3166 10.4051 45.3406 9.60901V9.58507C45.3585 9.1182 45.0413 8.75908 44.4368 8.74112C43.1738 8.69922 42.4436 9.75266 42.27 10.6804V10.6804ZM19.1542 16.4324C19.1781 16.7676 19.1183 17.037 18.5496 17.2285C17.2209 17.6714 15.9998 17.845 14.6351 17.8031C11.3671 17.7014 9.76897 15.8459 9.86473 12.8591C9.97846 9.38156 12.4265 5.79029 16.6044 5.92795C18.9626 6.00576 20.5248 7.47819 20.4829 9.62697C20.3872 12.6137 17.7596 13.721 13.468 13.4457C13.5039 13.727 13.6116 14.0083 13.8391 14.2537C14.2222 14.6188 14.8446 14.8762 15.7125 14.9002C16.5565 14.9181 17.2508 14.7445 17.6698 14.6368C18.2025 14.4931 18.3761 14.6009 18.6993 15.0259C18.8968 15.2832 19.1123 15.8698 19.1542 16.4384V16.4324ZM13.9049 10.6804C16.0298 10.7941 16.9515 10.4051 16.9755 9.60901V9.58507C16.9934 9.1182 16.6762 8.75908 16.0717 8.74112C14.8087 8.69922 14.0785 9.75266 13.9049 10.6804V10.6804ZM101.688 16.4324C101.712 16.7676 101.658 17.037 101.083 17.2285C99.7544 17.6714 98.5334 17.845 97.1687 17.8031C93.9006 17.7014 92.3025 15.8459 92.3983 12.8591C92.512 9.38156 94.9601 5.79029 99.1379 5.92795C101.496 6.00576 103.058 7.47819 103.017 9.62697C102.921 12.6137 100.293 13.721 96.0015 13.4457C96.0375 13.727 96.1452 14.0083 96.3726 14.2537C96.7557 14.6188 97.3782 14.8762 98.2461 14.9002C99.09 14.9181 99.7844 14.7445 100.203 14.6368C100.736 14.4931 100.91 14.6009 101.233 15.0259C101.43 15.2832 101.646 15.8698 101.688 16.4384V16.4324ZM96.4385 10.6804C98.5633 10.7941 99.4851 10.4051 99.509 9.60901V9.58507C99.527 9.1182 99.2098 8.75908 98.6052 8.74112C97.3423 8.69922 96.6121 9.75266 96.4385 10.6804ZM35.0216 5.88007C33.645 5.88007 32.3102 6.5265 31.3765 7.80739C31.2628 6.92154 30.4966 5.88007 28.8806 5.88007C27.456 5.88007 26.1991 6.4846 25.2414 7.81337C25.2414 7.81337 25.3252 7.42432 25.3491 7.29264C25.4509 6.80781 25.2534 6.41277 24.9062 6.23919C24.4034 5.98781 23.8587 5.88007 23.2782 5.88007C22.6976 5.88007 22.2127 5.92795 22.0452 6.76592L20.2316 16.0434C20.1178 16.6419 20.1897 16.8634 20.465 17.0968C20.866 17.444 21.6022 17.6654 22.1948 17.7373C22.8951 17.8211 23.6433 17.6894 23.757 17.1327L24.6788 12.3863C25.1097 10.1716 26.0015 8.9566 26.8455 8.9566C27.3602 8.9566 27.5697 9.37558 27.5697 9.9861C27.5697 10.4051 27.4979 10.8719 27.4021 11.3628L26.4624 16.1212C26.3726 16.5701 26.4026 16.8813 26.7677 17.1507C27.1687 17.444 27.869 17.6954 28.5035 17.7492C29.4791 17.833 29.9041 17.5936 30.0776 16.7018L30.9156 12.3923C31.3466 10.1657 32.1366 8.96258 32.9806 8.96258C33.5193 8.96258 33.7767 9.35762 33.7707 9.92025C33.7707 10.3632 33.6988 10.854 33.6031 11.3687L32.6813 16.0733C32.5856 16.5342 32.6215 16.8634 32.9567 17.1327C33.3696 17.4619 34.1478 17.6954 34.7283 17.7492C35.5843 17.8271 36.111 17.6176 36.2965 16.6599L37.4039 10.9737C37.5236 10.2973 37.6373 9.33966 37.6373 8.8728C37.6373 7.09512 36.8233 5.88605 35.0037 5.88605L35.0216 5.88007ZM114.85 1.47477C113.748 1.51666 112.922 2.43843 112.994 3.56369C113.06 4.58122 113.772 5.23962 114.742 5.19772H114.766C115.849 5.15583 116.771 4.3837 116.687 3.10281C116.621 2.10922 115.915 1.42688 114.85 1.46878V1.47477ZM12.9353 3.20456C13.2405 2.74967 13.2106 2.31273 12.9652 1.87579C12.5821 1.21141 12.0674 0.648772 11.385 0.289644C10.4992 -0.177222 9.82882 -0.135324 9.29611 0.828336C8.65567 1.97754 7.97333 3.09683 7.30295 4.23406C6.69842 5.26356 6.09389 6.29306 5.42352 7.42432C5.29782 7.09512 4.62147 3.9707 4.26234 2.46835C4.17256 2.09725 3.98701 1.70221 3.72365 1.43287C3.07123 0.774467 2.23327 0.37344 1.29953 0.367455C0.216165 0.361469 -0.0831081 0.702641 0.0186448 1.63637C0.0545575 1.97156 0.102441 2.30674 0.168281 2.64193C0.575293 4.6291 1.16187 6.56241 1.97589 8.4179C2.30509 9.16609 2.73605 9.88434 3.19693 10.5607C3.38248 10.83 3.39445 10.9797 3.26875 11.249C2.65225 12.5419 2.02378 13.8288 1.47311 15.1456C0.970334 16.3486 0.659089 17.6116 0.730915 18.9403C0.760842 19.479 1.00026 19.898 1.41924 20.2212C2.05969 20.712 2.78991 20.8737 3.56204 20.724C4.25037 20.5923 4.84293 20.2871 5.02249 19.497C5.9682 15.3551 7.56632 11.4944 9.84079 7.89717C10.8882 6.24518 11.8998 4.76079 12.9413 3.19858L12.9353 3.20456ZM115.652 6.35292C115.101 6.07759 114.479 5.95788 113.82 5.96386C112.833 5.96985 112.629 6.22124 112.474 6.90358C112.468 6.93351 111.115 16.4145 111.115 16.4145C111.019 17.0849 111.312 17.2644 111.719 17.456C112.27 17.7133 113.09 17.845 113.754 17.7612C114.455 17.6714 114.802 17.5517 114.952 16.5103L116.232 7.49614C116.292 7.02928 116.131 6.59234 115.652 6.35292V6.35292ZM109.81 14.9421C109.654 14.5829 109.433 14.3914 109.002 14.4453C108.769 14.4752 108.272 14.6129 108.068 14.4453C107.907 14.3076 107.787 14.1221 107.781 13.8467C107.775 13.6312 107.913 12.9728 107.978 12.6257L108.697 8.93864H110.361C110.57 8.93864 110.995 8.71119 111.097 8.22637C111.235 7.57994 111.282 7.27468 111.312 6.95147C111.36 6.49657 110.893 6.14343 110.438 6.13744H109.247C109.247 6.13744 109.624 4.26998 109.624 4.21611C109.708 3.59961 109.481 3.39011 109.098 3.22851C108.493 2.97113 107.793 2.84544 107.212 2.86339C106.434 2.88734 106.123 3.05493 105.913 4.07246L105.512 6.13146H104.758C104.405 6.13146 104.088 6.38285 104.022 6.73C103.962 7.04125 103.866 7.49614 103.777 7.97498C103.723 8.26827 103.615 8.88477 104.507 8.92667H104.98L104.142 13.1823C103.98 13.9425 103.896 14.6667 103.92 15.1396C103.998 16.7078 104.98 17.7552 107.063 17.7552C107.943 17.7552 108.565 17.5398 109.056 17.2943C109.87 16.8873 109.966 16.6958 110.008 16.0733C110.025 15.804 109.984 15.3072 109.828 14.9361L109.81 14.9421ZM68.7497 8.94462C69.1268 8.6274 69.4201 8.23235 69.5638 7.7595C69.7493 7.143 69.7553 6.83774 68.8335 6.37087C68.2529 6.08357 67.0319 5.81423 65.6792 5.85613C62.6206 5.94591 60.6155 7.66374 60.7531 10.0878C60.831 11.4406 62.07 12.4102 63.3688 13.0746C64.3564 13.5594 64.7036 13.8766 64.7275 14.3196C64.7514 14.7625 64.4222 15.1216 63.6501 15.1456C62.7942 15.1875 61.8964 14.954 61.238 14.7026C60.6993 14.4393 60.4658 14.5829 60.2564 14.8463C59.9391 15.2473 59.7296 15.7082 59.6817 16.217C59.6279 16.8215 59.7536 17.0968 60.4239 17.3841C61.1602 17.7014 62.3034 17.9228 63.4765 17.9049C66.6548 17.833 68.7617 16.3008 68.6121 13.6432C68.5283 12.2007 67.1277 11.2311 65.775 10.5248C64.9849 10.1537 64.5659 9.83646 64.5479 9.4893C64.518 8.95061 65.0148 8.65732 65.8109 8.63338C66.4453 8.61542 67.2115 8.75908 67.6604 8.89076C67.7202 8.90871 67.822 8.93864 67.822 8.93864C68.4385 9.17806 68.4924 9.15412 68.7437 8.95061L68.7497 8.94462ZM91.6561 10.1896C91.6561 14.134 89.22 17.9168 85.3893 17.9108C84.9643 17.9108 84.5394 17.851 84.1862 17.7612C83.9408 17.6954 83.7254 17.6116 83.5697 17.5158H83.5218C83.5218 17.5158 82.9053 20.6881 82.8994 20.718C82.6779 21.7595 82.3906 21.8672 81.5945 21.957C80.9361 22.0288 80.176 21.8852 79.5774 21.5979C79.5655 21.5979 79.5535 21.5859 79.5415 21.5799C79.1405 21.3824 78.9011 21.1729 79.0387 20.4367C79.0387 20.4367 81.6723 6.87365 81.6843 6.83176C81.798 6.28708 81.9716 6.01175 82.4445 5.92197C82.654 5.88007 83.1148 5.88007 83.4021 5.92197C83.9947 5.99379 84.4616 6.17934 84.7369 6.35292C85.0422 6.54445 85.1918 6.93351 85.114 7.34651L85.0601 7.61585C85.4552 7.08913 85.8263 6.76592 86.353 6.47263C86.9515 6.14343 87.6039 5.96985 88.2504 5.96985C90.6565 5.96985 91.6561 7.93308 91.6561 10.2016V10.1896ZM87.6877 10.5846C87.6877 9.83646 87.4543 9.08828 86.6403 9.08828C86.335 9.08828 86.0537 9.19601 85.7963 9.39353C85.2217 9.83646 84.7788 10.7343 84.5813 11.8595L84.0905 14.6368C84.27 14.8044 84.4675 14.9301 84.7189 14.9959C84.8566 15.0318 85.0122 15.0558 85.1858 15.0558C86.6582 15.0558 87.6877 12.4461 87.6877 10.5727V10.5846Z" fill="#FA0050"/>
</svg>
