<svg width="132" height="132" viewBox="0 0 132 132" fill="none" xmlns="http://www.w3.org/2000/svg">
<g clip-path="url(#clip0_1961_3571)">
<path d="M120.677 129C126.9 129 132.669 122.434 131.94 114.257L130.346 40.9286L130.123 13.1314C130.166 -1.67144 115.723 0.051416 115.723 0.051416L13.0886 5.50284C6.86571 5.50284 1.82571 10.5428 1.82571 16.7657L0 120.72C0 126.943 5.04 131.991 11.2629 131.991L120.669 129H120.677Z" fill="#FCE5F1"/>
<path d="M105.909 48.5914C103.834 48.3343 101.76 48.0771 99.6857 47.8285C98.2457 47.6485 96.7286 51.0514 98.3914 51.2571C100.466 51.5143 102.54 51.7714 104.614 52.02C106.054 52.2 107.571 48.7971 105.909 48.5914Z" fill="white"/>
<path d="M96.5571 36.2485C95.5457 37.98 94.5343 39.7114 93.5228 41.4428C93.1886 42.0171 92.8371 43.1914 93.5571 43.6285C94.2771 44.0657 95.16 43.0971 95.4686 42.5657L98.5028 37.3714C98.8371 36.7971 99.1886 35.6228 98.4686 35.1857C97.7486 34.7485 96.8657 35.7171 96.5571 36.2485Z" fill="white"/>
<path d="M102.377 40.4314C100.509 41.7685 98.64 43.0971 96.7714 44.4343C95.4429 45.3857 95.5114 48.4714 97.5086 47.0485C99.3772 45.7114 101.246 44.3828 103.114 43.0457C104.443 42.0943 104.374 39.0085 102.377 40.4314Z" fill="white"/>
<path d="M35.4596 60.8616L8.22272 74.4474L16.7545 91.5519L43.9913 77.9662L35.4596 60.8616Z" fill="#00FFB0"/>
<path d="M17.28 90.9086C14.7943 85.92 12.3 80.9315 9.81429 75.9429C9.46286 75.2315 9.10286 74.52 8.75143 73.8086L8.22858 75.1629C11.2971 73.6286 14.3743 72.0943 17.4429 70.5686C22.32 68.1343 27.1886 65.7086 32.0657 63.2743C33.1971 62.7086 34.3286 62.1429 35.46 61.5772L34.9114 61.5172C37.3971 66.5057 39.8914 71.4943 42.3771 76.4829C42.7286 77.1943 43.0886 77.9057 43.44 78.6172L43.9629 77.2629C40.8943 78.7972 37.8171 80.3315 34.7486 81.8572C29.8714 84.2915 25.0029 86.7172 20.1257 89.1515C18.9943 89.7172 17.8629 90.2829 16.7314 90.8486C16.14 91.14 15.8486 92.7172 16.7571 92.2629C19.8257 90.7286 22.9029 89.1943 25.9714 87.6686L40.5943 80.3743C41.7257 79.8086 42.8571 79.2429 43.9886 78.6772C44.4343 78.4543 44.7343 77.7772 44.5114 77.3229C42.0257 72.3343 39.5314 67.3457 37.0457 62.3572L35.9829 60.2229C35.88 60.0172 35.5886 60.0857 35.4343 60.1629C32.3657 61.6972 29.2886 63.2315 26.22 64.7572C21.3429 67.1915 16.4743 69.6172 11.5971 72.0515C10.4657 72.6172 9.33429 73.1829 8.20286 73.7486C7.75715 73.9715 7.45715 74.6486 7.68001 75.1029C10.1657 80.0915 12.66 85.08 15.1457 90.0686L16.2086 92.2029C16.5257 92.8372 17.5714 91.5086 17.2714 90.9086H17.28Z" fill="#00BB75"/>
<path d="M18.7114 87.7886C16.8085 83.9743 14.9057 80.1515 13.0028 76.3372L12.1714 74.6658L11.76 75.7372C18.24 72.5058 24.7114 69.2743 31.1914 66.0429L33.9343 64.6715L33.5057 64.6286C35.4085 68.4429 37.3114 72.2658 39.2143 76.08L40.0457 77.7515L40.4571 76.68C33.9771 79.9115 27.5057 83.1429 21.0257 86.3743L18.2828 87.7458C17.82 87.9772 17.58 89.22 18.3 88.8686C24.78 85.6372 31.2514 82.4058 37.7314 79.1743C38.6485 78.72 39.5571 78.2657 40.4743 77.8029C40.8257 77.6229 41.0657 77.0915 40.8857 76.7315C38.9828 72.9172 37.08 69.0943 35.1771 65.28L34.3457 63.6086C34.26 63.4458 34.0371 63.4972 33.9171 63.5658C27.4371 66.7972 20.9657 70.0286 14.4857 73.26L11.7428 74.6315C11.3914 74.8115 11.1514 75.3429 11.3314 75.7029L17.04 87.1543L17.8714 88.8257C18.12 89.3229 18.9514 88.2772 18.7114 87.7972V87.7886Z" fill="white"/>
<path d="M21.78 86.5628C20.7686 84.54 18.3857 83.6743 16.4572 84.6343L18.2829 88.3028L21.7714 86.5628H21.78Z" fill="white"/>
<path d="M15.2314 73.4399L11.7429 75.1799L13.5686 78.8485C15.4971 77.8885 16.2429 75.4628 15.2314 73.4399Z" fill="white"/>
<path d="M30.4286 65.8628C31.44 67.8857 33.8229 68.7514 35.7514 67.7914L33.9257 64.1228L30.4372 65.8628H30.4286Z" fill="white"/>
<path d="M38.6314 73.5771C36.7028 74.5371 35.9571 76.9629 36.9686 78.9857L40.4571 77.2457L38.6314 73.5771Z" fill="white"/>
<path d="M28.1743 29.76L28.08 16.6285L52.7572 23.3057L52.8429 36.4457L28.1743 29.76Z" fill="#00FFB0"/>
<path d="M28.7914 29.7C28.7657 25.8686 28.74 22.0372 28.7143 18.2058V16.5686C28.4143 16.7143 28.1228 16.86 27.84 17.0058C30.6257 17.76 33.4028 18.5143 36.1885 19.2686C40.6028 20.46 45.0171 21.66 49.4314 22.8515C50.46 23.1258 51.48 23.4086 52.5085 23.6829L52.1314 23.3743C52.1571 27.2058 52.1828 31.0372 52.2085 34.8686V36.5058C52.5085 36.36 52.8 36.2143 53.0828 36.0686C50.2971 35.3143 47.52 34.56 44.7343 33.8057C40.32 32.6143 35.9057 31.4143 31.4914 30.2229C30.4628 29.9486 29.4428 29.6658 28.4143 29.3915C27.8828 29.2458 27.1028 29.9143 27.9257 30.1372C30.7114 30.8915 33.4885 31.6457 36.2743 32.4C40.6885 33.5915 45.1028 34.7915 49.5171 35.9829C50.5457 36.2572 51.5657 36.54 52.5943 36.8143C52.9971 36.9258 53.46 36.7286 53.46 36.3772C53.4343 32.5457 53.4085 28.7143 53.3828 24.8829V23.2458C53.3743 23.0829 53.1343 22.98 52.9971 22.9372C50.2114 22.1829 47.4343 21.4286 44.6485 20.6743C40.2343 19.4829 35.82 18.2829 31.4057 17.0915C30.3771 16.8172 29.3571 16.5343 28.3285 16.26C27.9257 16.1486 27.4628 16.3458 27.4628 16.6972C27.4885 20.5286 27.5143 24.36 27.54 28.1915V29.8286C27.5571 30.3172 28.7914 30.1543 28.7914 29.6915V29.7Z" fill="#00BB75"/>
<path d="M30.9428 28.8001C30.9257 25.8686 30.9 22.9372 30.8828 20.0058V18.7201C30.6428 18.8401 30.42 18.9515 30.1886 19.0715C36.06 20.6572 41.9228 22.2515 47.7943 23.8372L50.28 24.5058L49.98 24.2658C49.9971 27.1972 50.0228 30.1286 50.04 33.0601V34.3458C50.28 34.2258 50.5028 34.1143 50.7343 33.9943C44.8628 32.4086 39 30.8143 33.1286 29.2286L30.6428 28.5601C30.2228 28.4486 29.6057 28.9715 30.2571 29.1515C36.1286 30.7372 41.9914 32.3315 47.8628 33.9172L50.3486 34.5858C50.6743 34.6715 51.0343 34.5172 51.0343 34.2343C51.0171 31.3029 50.9914 28.3715 50.9743 25.4401V24.1543C50.9657 24.0258 50.7771 23.9401 50.6657 23.9143C44.7943 22.3286 38.9314 20.7343 33.06 19.1486L30.5743 18.4801C30.2485 18.3943 29.8885 18.5486 29.8885 18.8315L29.9485 27.6258V28.9115C29.9571 29.2972 30.9428 29.1686 30.9343 28.8086L30.9428 28.8001Z" fill="white"/>
<path d="M33.6171 29.7085C33.6086 28.1485 32.1857 26.5114 30.4371 26.0314L30.4543 28.8514L33.6171 29.7085Z" fill="white"/>
<path d="M33.5486 19.6372L30.3857 18.78L30.4029 21.6C32.1515 22.0715 33.5572 21.1972 33.5486 19.6372Z" fill="white"/>
<path d="M47.3143 23.3572C47.3228 24.9172 48.7457 26.5543 50.4943 27.0343L50.4771 24.2143L47.3143 23.3572Z" fill="white"/>
<path d="M50.52 31.4743C48.7714 31.0029 47.3657 31.8772 47.3743 33.4372L50.5372 34.2943L50.52 31.4743Z" fill="white"/>
<path d="M98.7428 11.4429L108.78 15.3172L88.3714 30.4372L78.3257 26.5629L98.7428 11.4429Z" fill="#00FFB0"/>
<path d="M98.4086 11.8886C101.34 13.02 104.271 14.1514 107.203 15.2829L108.454 15.7629L108.66 15.0343C106.354 16.74 104.057 18.4457 101.751 20.1514L90.7886 28.2686L88.2428 30.1543L88.7057 29.9829C85.7743 28.8514 82.8428 27.72 79.9114 26.5886L78.66 26.1086L78.4543 26.8371C80.76 25.1314 83.0571 23.4257 85.3628 21.72C89.0143 19.0114 92.6657 16.3114 96.3257 13.6029L98.8714 11.7171C99.3086 11.3914 99.2914 10.6457 98.6057 11.1514C96.3 12.8571 94.0028 14.5629 91.6971 16.2686L80.7343 24.3857C79.8857 25.0114 79.0371 25.6457 78.1886 26.2714C77.8543 26.52 77.7171 26.8971 77.9828 27C80.9143 28.1314 83.8457 29.2629 86.7771 30.3943L88.0286 30.8743C88.1486 30.9171 88.38 30.7886 88.4914 30.7029C90.7971 28.9971 93.0943 27.2914 95.4 25.5857C99.0514 22.8771 102.703 20.1771 106.363 17.4686L108.909 15.5829C109.243 15.3343 109.38 14.9571 109.114 14.8543C106.183 13.7229 103.251 12.5914 100.32 11.46L99.0686 10.98C98.7 10.8343 98.0486 11.7429 98.4 11.88L98.4086 11.8886Z" fill="#00BB75"/>
<path d="M97.7485 13.6543C99.9943 14.52 102.231 15.3857 104.477 16.2514L105.463 16.6286L105.626 16.0543C100.774 19.6543 95.9143 23.2457 91.0628 26.8457L89.0057 28.3714L89.3743 28.2343C87.1285 27.3686 84.8914 26.5029 82.6457 25.6371L81.66 25.26L81.4971 25.8343C86.3485 22.2343 91.2085 18.6429 96.06 15.0429L98.1171 13.5171C98.4685 13.26 98.4514 12.6771 97.9114 13.0714C93.06 16.6714 88.2 20.2629 83.3485 23.8629L81.2914 25.3886C81.0257 25.5857 80.9143 25.8857 81.1285 25.9629C83.3743 26.8286 85.6114 27.6943 87.8571 28.56L88.8428 28.9371C88.9371 28.9714 89.1171 28.8686 89.2114 28.8C94.0628 25.2 98.9228 21.6086 103.774 18.0086L105.831 16.4829C106.097 16.2857 106.209 15.9857 105.994 15.9086C103.749 15.0429 101.511 14.1771 99.2657 13.3114L98.28 12.9343C97.9886 12.8229 97.4743 13.5343 97.7485 13.6457V13.6543Z" fill="white"/>
<path d="M95.3914 15.2315C96.5828 15.6943 98.7171 15.1972 100.166 14.1257L98.0143 13.2943L95.4 15.2315H95.3914Z" fill="white"/>
<path d="M103.106 18.2057L105.72 16.2686L103.569 15.4371C102.12 16.5086 101.914 17.7428 103.106 18.2057Z" fill="white"/>
<path d="M91.7143 26.64C90.5229 26.1772 88.3886 26.6743 86.94 27.7457L89.0914 28.5772L91.7057 26.64H91.7143Z" fill="white"/>
<path d="M83.5457 26.4343C84.9943 25.3629 85.2 24.1286 84.0086 23.6658L81.3943 25.6029L83.5457 26.4343Z" fill="white"/>
<mask id="mask0_1961_3571" style="mask-type:luminance" maskUnits="userSpaceOnUse" x="0" y="-1" width="133" height="133">
<path d="M120.677 129C126.9 129 132.669 122.434 131.94 114.257L130.346 40.9286L130.123 13.1314C130.166 -1.67144 115.723 0.051416 115.723 0.051416L13.0886 5.50284C6.86571 5.50284 1.82571 10.5428 1.82571 16.7657L0 120.72C0 126.943 5.04 131.991 11.2629 131.991L120.669 129H120.677Z" fill="white"/>
</mask>
<g mask="url(#mask0_1961_3571)">
<path opacity="0.4" d="M66 164.066C131.484 164.066 184.569 146.966 184.569 125.871C184.569 104.777 131.484 87.6771 66 87.6771C0.516354 87.6771 -52.5686 104.777 -52.5686 125.871C-52.5686 146.966 0.516354 164.066 66 164.066Z" fill="#F7CDE7"/>
</g>
<path opacity="0.4" d="M68.6829 117.437C85.4266 117.437 99 116.148 99 114.557C99 112.967 85.4266 111.677 68.6829 111.677C51.9392 111.677 38.3657 112.967 38.3657 114.557C38.3657 116.148 51.9392 117.437 68.6829 117.437Z" fill="#F4C3E4"/>
<path d="M77.9592 45.9308C79.7199 44.872 80.7378 43.333 80.2328 42.4932C79.7279 41.6534 77.8912 41.8309 76.1305 42.8897C74.3698 43.9485 73.3519 45.4875 73.8569 46.3273C74.3618 47.1671 76.1985 46.9896 77.9592 45.9308Z" fill="#898989"/>
<path d="M96.18 95.8457L47.9657 105.549C45.0343 106.14 42.18 104.237 41.5972 101.314L34.8857 67.9542C34.2943 65.0228 36.1972 62.1685 39.12 61.5857L86.5886 48.1714C89.52 47.5799 92.3743 49.4828 92.9572 52.4057L100.414 89.4771C101.006 92.4085 99.1029 95.2628 96.18 95.8457Z" fill="#FA0050"/>
<path d="M70.7743 78.5571C72.3171 77.1086 73.1057 74.9229 72.66 72.6943C71.9743 69.2743 68.6314 67.0543 65.22 67.7486C61.8 68.4343 59.58 71.7771 60.2743 75.1886C60.72 77.4171 62.2971 79.1229 64.2857 79.86L63.9171 87.5486C63.8914 87.8057 63.9857 88.0629 64.1743 88.2343C64.3628 88.4057 64.6286 88.4829 64.8771 88.4314L69.2057 87.5571L73.5343 86.6829C73.7914 86.6314 73.9971 86.46 74.1086 86.2286C74.22 85.9971 74.2114 85.7229 74.0828 85.4914L70.7743 78.54V78.5571Z" fill="#BE0034"/>
<path d="M79.2343 58.3114C81.1886 57.6428 83.6057 56.3828 85.3886 58.0543C86.3743 58.98 86.4857 60.4543 86.76 61.7143C87.06 63.0514 88.9029 61.0714 88.68 60.0686C88.3114 58.4314 88.1057 56.7 86.7086 55.5857C84.5571 53.8714 81.9943 55.0543 79.7143 55.8343C78.7543 56.16 77.9571 58.7571 79.2428 58.32L79.2343 58.3114Z" fill="#FFCCD9"/>
<path d="M76.1314 42.8828C77.7343 41.9228 79.3972 41.6914 80.0657 42.2914C75.1114 35.1342 66.8314 31.1657 58.5 32.8457C46.9286 35.1771 39.6429 47.5028 42.24 60.3771C42.2657 60.5057 42.3 60.6257 42.3257 60.7542L49.3114 58.7828C47.7 50.3314 52.4914 42.2828 60.0943 40.7485C65.3229 39.6942 70.5171 41.9999 73.8343 46.2857C73.3971 45.4371 74.4086 43.9371 76.1314 42.8914V42.8828Z" fill="#AAAAAA"/>
<path d="M74.88 40.1572C73.02 37.5686 70.4315 35.76 67.2857 35.1429C66.7715 35.04 66.1972 36.2829 66.8143 36.4029C69.8143 36.9943 72.2572 38.7343 74.0229 41.1943C74.3829 41.6915 75.1972 40.5857 74.88 40.1486V40.1572Z" fill="white"/>
<path d="M42.2314 60.3685C42.2571 60.4971 42.2914 60.6171 42.3171 60.7457L49.3029 58.7743C49.14 57.9171 49.0457 57.06 49.0114 56.22H41.7429C41.8029 57.5914 41.9571 58.98 42.24 60.3771L42.2314 60.3685Z" fill="#898989"/>
<path d="M93.2743 79.3286L91.4314 67.3715L117.257 76.7486L119.1 88.7057L93.2743 79.3286Z" fill="#00FFB0"/>
<path d="M93.8914 79.3543C93.3514 75.8657 92.8114 72.3771 92.2714 68.8886L92.04 67.3971L91.2257 67.68C94.14 68.7343 97.0543 69.7972 99.9686 70.8514C104.589 72.5314 109.209 74.2029 113.837 75.8829C114.909 76.2686 115.989 76.6629 117.06 77.0486L116.64 76.7229C117.18 80.2114 117.72 83.7 118.26 87.1886L118.491 88.68L119.306 88.3971C116.391 87.3429 113.477 86.28 110.563 85.2257C105.943 83.5457 101.323 81.8743 96.6943 80.1943C95.6228 79.8086 94.5429 79.4143 93.4714 79.0286C92.9143 78.8229 92.2114 79.3286 93.0771 79.6371C95.9914 80.6914 98.9057 81.7543 101.82 82.8086C106.44 84.4886 111.06 86.16 115.689 87.84C116.76 88.2257 117.84 88.62 118.911 89.0057C119.34 89.16 119.777 89.04 119.726 88.7229C119.186 85.2343 118.646 81.7457 118.106 78.2571L117.874 76.7657C117.849 76.62 117.6 76.4914 117.454 76.44C114.54 75.3857 111.626 74.3229 108.711 73.2686C104.091 71.5886 99.4714 69.9171 94.8429 68.2371C93.7714 67.8514 92.6914 67.4571 91.62 67.0714C91.1914 66.9171 90.7543 67.0371 90.8057 67.3543C91.3457 70.8429 91.8857 74.3314 92.4257 77.82L92.6571 79.3114C92.7257 79.7571 93.96 79.7743 93.8914 79.3543Z" fill="#00BB75"/>
<path d="M95.9486 78.8315L94.7143 70.8258L94.5343 69.6515L93.8914 69.8743C100.037 72.1029 106.174 74.3315 112.32 76.56L114.917 77.5029L114.583 77.2458C114.994 79.9115 115.406 82.5858 115.817 85.2515L115.997 86.4258L116.64 86.2029C110.494 83.9743 104.357 81.7458 98.2114 79.5172L95.6143 78.5743C95.1772 78.4115 94.62 78.8143 95.3057 79.0543C101.451 81.2829 107.589 83.5115 113.734 85.74L116.331 86.6829C116.666 86.8029 117.017 86.7086 116.974 86.46C116.563 83.7943 116.151 81.12 115.74 78.4543L115.56 77.28C115.543 77.1686 115.346 77.0658 115.226 77.0229C109.08 74.7943 102.943 72.5658 96.7972 70.3372L94.2 69.3943C93.8657 69.2743 93.5143 69.3686 93.5572 69.6172C93.9686 72.2829 94.38 74.9572 94.7914 77.6229L94.9714 78.7972C95.0229 79.1486 96 79.1658 95.9486 78.8315Z" fill="white"/>
<path d="M98.7686 80.0142C98.5457 78.5999 96.8914 76.9114 95.0657 76.2428L95.46 78.8057L98.7686 80.0057V80.0142Z" fill="white"/>
<path d="M97.3543 70.8343L94.0457 69.6343L94.44 72.1971C96.2657 72.8571 97.5686 72.2486 97.3543 70.8343Z" fill="white"/>
<path d="M111.763 76.0629C111.986 77.4772 113.64 79.1657 115.466 79.8343L115.071 77.2714L111.763 76.0714V76.0629Z" fill="white"/>
<path d="M116.091 83.88C114.266 83.22 112.963 83.8285 113.177 85.2428L116.486 86.4428L116.091 83.88Z" fill="white"/>
<path d="M20.7 52.9629C22.7829 52.9629 24.4714 51.2744 24.4714 49.1915C24.4714 47.1086 22.7829 45.42 20.7 45.42C18.6171 45.42 16.9286 47.1086 16.9286 49.1915C16.9286 51.2744 18.6171 52.9629 20.7 52.9629Z" fill="#F2D600"/>
<path d="M23.8714 51.0342C21.3514 54.9257 15.1714 51.3942 17.5286 47.3485C19.8857 43.3028 26.0143 46.9114 23.8714 51.0342C23.7771 51.2142 23.9486 51.3171 24.0429 51.1371C25.02 49.26 24.6 46.9114 22.68 45.7885C20.76 44.6657 18.42 45.4114 17.3571 47.2457C16.2943 49.08 16.8686 51.5142 18.72 52.5942C20.5714 53.6742 22.8943 52.9114 24.0429 51.1371C24.1543 50.9657 23.9829 50.8714 23.8714 51.0342Z" fill="#F2D600"/>
<path d="M23.5971 50.8801C21.4286 54.2315 15.7629 50.9829 17.7943 47.5029C19.8257 44.0229 25.44 47.3315 23.5971 50.8801C23.22 51.6172 23.9229 52.0372 24.3086 51.2915C25.38 49.2343 25.0886 46.5943 22.9286 45.3429C20.7686 44.0915 18.24 45.0858 17.0829 47.0915C15.9257 49.0972 16.38 51.8315 18.4629 53.0401C20.5457 54.2486 23.0486 53.2372 24.3086 51.2915C24.7629 50.5886 24.0514 50.1858 23.5971 50.8801Z" fill="#CD975E"/>
<path d="M115.14 63.5828C117.251 63.5828 118.963 61.8713 118.963 59.76C118.963 57.6487 117.251 55.9371 115.14 55.9371C113.029 55.9371 111.317 57.6487 111.317 59.76C111.317 61.8713 113.029 63.5828 115.14 63.5828Z" fill="#F2D600"/>
<path d="M114.831 63.4714C110.169 62.8628 110.709 55.6628 115.449 56.0571C120.18 56.4514 119.537 63.6343 114.831 63.4714C114.626 63.4714 114.609 63.6685 114.814 63.6685C116.957 63.7457 118.929 62.3314 119.117 60.0943C119.297 57.9343 117.609 56.0314 115.466 55.86C113.323 55.6885 111.343 57.2743 111.163 59.4343C110.983 61.5943 112.689 63.3943 114.814 63.6685C115.02 63.6943 115.029 63.4971 114.831 63.4714Z" fill="#F2D600"/>
<path d="M114.857 63.1543C110.846 62.6315 111.351 56.0315 115.423 56.3743C119.494 56.7172 118.911 63.3 114.857 63.1543C114.017 63.1286 113.94 63.9515 114.789 63.9857C117.137 64.0715 119.426 62.6486 119.64 60.1372C119.854 57.6257 117.831 55.74 115.491 55.5429C113.151 55.3457 110.846 56.9572 110.64 59.3915C110.434 61.8257 112.457 63.6772 114.789 63.9857C115.629 64.0972 115.689 63.2657 114.857 63.1543Z" fill="#CD975E"/>
<path d="M70.7571 20.2371C72.8684 20.2371 74.58 18.5256 74.58 16.4143C74.58 14.303 72.8684 12.5914 70.7571 12.5914C68.6458 12.5914 66.9343 14.303 66.9343 16.4143C66.9343 18.5256 68.6458 20.2371 70.7571 20.2371Z" fill="#F2D600"/>
<path d="M72.7886 19.5257C68.7343 21.9085 64.74 15.9085 68.7171 13.3028C72.6943 10.6971 76.6029 16.7571 72.7886 19.5257C72.6257 19.6457 72.7286 19.8171 72.9 19.6971C74.64 18.4371 75.3172 16.1143 74.0914 14.2285C72.8657 12.3428 70.4057 11.9571 68.6057 13.1314C66.8057 14.3057 66.2314 16.7828 67.4143 18.6C68.5972 20.4171 71.0486 20.7857 72.9 19.6971C73.08 19.5943 72.9686 19.4228 72.7886 19.5257Z" fill="#F2D600"/>
<path d="M72.6172 19.2686C69.1286 21.3257 65.4686 15.8057 68.8886 13.5686C72.3086 11.34 75.9 16.8857 72.6172 19.2686C71.94 19.7572 72.3857 20.4686 73.08 19.9629C74.9829 18.5829 75.9172 16.0543 74.5372 13.9457C73.1572 11.8372 70.4057 11.5886 68.4429 12.8743C66.48 14.1686 65.6486 16.8515 66.9857 18.8915C68.3229 20.9315 71.0572 21.1543 73.08 19.9629C73.8086 19.5343 73.3457 18.84 72.6172 19.2686Z" fill="#CD975E"/>
</g>
<defs>
<clipPath id="clip0_1961_3571">
<rect width="132" height="132" fill="white"/>
</clipPath>
</defs>
</svg>
