<svg width="132" height="132" viewBox="0 0 132 132" fill="none" xmlns="http://www.w3.org/2000/svg">
<g clip-path="url(#clip0_1961_3631)">
<path d="M120.677 129C126.9 129 132.669 122.434 131.94 114.257L130.346 40.9286L130.123 13.1314C130.166 -1.67144 115.723 0.051416 115.723 0.051416L13.0886 5.50284C6.86571 5.50284 1.82571 10.5428 1.82571 16.7657L0 120.72C0 126.943 5.04 131.991 11.2629 131.991L120.669 129H120.677Z" fill="#FCE5F1"/>
<path d="M103.003 22.0372C102.626 21.9429 102.103 22.2772 101.726 22.26C101.066 22.2257 100.449 21.8829 99.7972 21.7886C98.9914 21.6772 98.2629 21.8229 97.7143 22.4657C97.3543 22.8943 97.2 23.4343 97.1571 23.9829C97.1143 24.5486 97.3543 25.1743 97.26 25.7143C97.0029 27.1115 95.9486 26.8715 94.9457 26.5972C93.48 26.2029 91.9886 26.2457 91.5514 27.9686C91.3971 28.56 91.5943 29.1772 91.5 29.76C91.2943 31.0886 90.5829 31.5515 89.3572 31.2257C88.6114 31.0286 87.1886 30.5486 86.5372 31.3115C86.0143 31.9115 86.5372 33.48 87.3429 33.5486C87.3686 33.5572 87.4029 33.5572 87.4457 33.5486C87.4457 33.5486 87.4457 33.5486 87.4629 33.5486C87.5057 33.5486 87.5486 33.5229 87.5829 33.4972C89.3229 32.7172 91.6972 35.0315 92.88 32.6743C93.2657 31.8943 93.06 31.1315 93.0686 30.3086C93.0943 27.7286 95.0572 29.16 96.4886 29.2543C97.9972 29.3572 98.7857 28.26 98.8457 26.8543C98.8543 26.5457 98.76 26.1343 98.8029 25.8257C98.8886 25.2772 99.1972 24.36 99.8829 24.1372C100.397 23.9657 101.271 24.4886 101.769 24.5743C102.394 24.6857 103.397 24.8057 103.843 24.1886C104.289 23.5715 103.723 22.1915 103.02 22.0115L103.003 22.0372Z" fill="#D70F64"/>
<path d="M70.7657 9.18005C70.4314 9.36862 70.2857 9.96862 69.9943 10.2258C69.4971 10.6543 68.8028 10.8343 68.2714 11.2115C67.6114 11.6915 67.1828 12.2915 67.2257 13.1315C67.26 13.6972 67.5257 14.1858 67.8686 14.6143C68.22 15.0515 68.8286 15.3343 69.1371 15.8058C69.9171 16.9972 68.9914 17.5458 68.0657 18.0429C66.7286 18.7629 65.6743 19.8258 66.5486 21.3772C66.8486 21.9086 67.4057 22.2172 67.7486 22.7058C68.52 23.8029 68.3143 24.6343 67.2086 25.2515C66.5314 25.6201 65.1771 26.2543 65.22 27.2572C65.2543 28.0543 66.7114 28.8343 67.3457 28.3201C67.3714 28.3115 67.3971 28.2858 67.4229 28.2515C67.4229 28.2515 67.4228 28.2515 67.4314 28.2429C67.4571 28.2086 67.4743 28.1743 67.4829 28.1229C68.2114 26.3572 71.5286 26.4001 70.7571 23.8801C70.5 23.0486 69.8228 22.6458 69.2657 22.0372C67.5 20.1429 69.9086 19.8343 71.0228 18.9172C72.1886 17.9486 72 16.6115 71.0743 15.5572C70.8686 15.3258 70.5171 15.1029 70.3371 14.8458C70.02 14.3915 69.6086 13.5172 69.9514 12.8829C70.2086 12.4029 71.1943 12.1801 71.6228 11.8972C72.1543 11.5458 72.96 10.9458 72.8571 10.1915C72.7543 9.4372 71.3914 8.82862 70.7657 9.18005Z" fill="#D70F64"/>
<path d="M45.3 31.4229C44.3571 30.3943 45.9428 27.12 43.5685 27.12C42.5057 27.12 41.82 28.1829 40.8428 28.32C38.8971 28.6029 39.8828 26.0229 39.4028 24.9514C38.4514 22.8343 36.2828 25.5686 34.9457 25.5C33.1371 25.3971 35.0485 21.1457 33.1885 21.3C32.4685 21.36 31.5943 22.7571 31.6285 23.3657C31.6371 23.5286 31.9114 24.0429 31.9285 24.0771C32.1771 24.8143 31.98 25.4829 32.0571 26.2543C32.1085 26.8114 32.2028 27.4543 32.7685 27.7629C33.3771 28.0971 34.0628 27.8314 34.6457 27.54C35.0485 27.3429 36.2057 26.4429 36.6 26.5371C37.1657 26.6743 37.4485 27.6171 37.5257 28.0286C37.5685 28.26 37.4657 28.92 37.4828 29.1257C37.6028 30.7971 38.6143 31.1914 40.2171 30.42C41.16 29.9743 42.4628 28.8771 42.9943 30.4371C43.1657 30.9514 42.8743 31.9543 42.96 32.52C43.02 32.9229 43.1914 33.7286 43.7571 33.7371C44.5028 33.7371 45.6 32.1943 45.3771 31.5514C45.36 31.4914 45.3343 31.4486 45.3 31.4229C45.3 31.4229 45.3 31.4229 45.3 31.4143V31.4229Z" fill="#D70F64"/>
<path d="M83.6743 17.1172C81.3772 19.8172 79.0886 22.5086 76.7915 25.2086C76.1657 25.9458 75.4715 27.4972 76.1572 28.3972C76.8429 29.2972 78.0943 28.44 78.6258 27.8058C80.9229 25.1058 83.2115 22.4143 85.5086 19.7143C86.1343 18.9772 86.8286 17.4258 86.1429 16.5258C85.4572 15.6258 84.2058 16.4829 83.6743 17.1172Z" fill="white"/>
<path d="M50.5115 19.6714C51.9001 22.9285 53.2886 26.1857 54.6772 29.4428C55.6886 31.8257 58.8858 28.1914 58.1486 26.46C56.7601 23.2028 55.3715 19.9457 53.9829 16.6885C52.9715 14.3057 49.7743 17.94 50.5115 19.6714Z" fill="white"/>
<path d="M26.3057 41.5715C29.0143 42.9 31.7228 44.2286 34.4314 45.5486C36.2914 46.4657 38.7428 42.1029 36.9343 41.22C34.2257 39.8915 31.5171 38.5629 28.8085 37.2429C26.9485 36.3257 24.4971 40.6886 26.3057 41.5715Z" fill="white"/>
<path d="M92.82 45.0343C95.6914 44.1085 98.5628 43.1914 101.434 42.2657C102.566 41.9057 103.414 40.7228 103.611 39.5743C103.749 38.7514 103.431 37.3971 102.283 37.7743C99.4114 38.7 96.54 39.6171 93.6686 40.5428C92.5371 40.9028 91.6886 42.0857 91.4914 43.2343C91.3543 44.0571 91.6714 45.4114 92.82 45.0343Z" fill="white"/>
<mask id="mask0_1961_3631" style="mask-type:luminance" maskUnits="userSpaceOnUse" x="0" y="-1" width="133" height="133">
<path d="M120.677 129C126.9 129 132.669 122.434 131.94 114.257L130.346 40.9286L130.123 13.1314C130.166 -1.67144 115.723 0.051416 115.723 0.051416L13.0886 5.50284C6.86571 5.50284 1.82571 10.5428 1.82571 16.7657L0 120.72C0 126.943 5.04 131.991 11.2629 131.991L120.669 129H120.677Z" fill="white"/>
</mask>
<g mask="url(#mask0_1961_3631)">
<path opacity="0.4" d="M66 164.066C131.484 164.066 184.569 146.966 184.569 125.871C184.569 104.777 131.484 87.6771 66 87.6771C0.516354 87.6771 -52.5686 104.777 -52.5686 125.871C-52.5686 146.966 0.516354 164.066 66 164.066Z" fill="#F7CDE7"/>
</g>
<mask id="mask1_1961_3631" style="mask-type:luminance" maskUnits="userSpaceOnUse" x="0" y="-1" width="133" height="133">
<path d="M120.677 129C126.9 129 132.669 122.434 131.94 114.257L130.346 40.9286L130.123 13.1314C130.166 -1.67144 115.723 0.051416 115.723 0.051416L13.0886 5.50284C6.86571 5.50284 1.82571 10.5428 1.82571 16.7657L0 120.72C0 126.943 5.04 131.983 11.2629 131.983L120.669 128.991L120.677 129Z" fill="white"/>
</mask>
<g mask="url(#mask1_1961_3631)">
<path d="M66.7628 41.5458C66.7628 41.5458 65.2714 40.7829 63.3771 41.2029C61.2257 41.6743 60.5142 43.8343 60.3428 45.7372C60.1628 47.64 58.7999 68.76 58.2599 75.3858C57.7199 82.0115 57.0085 93.3086 58.7742 98.3229C60.9256 104.434 67.8342 107.786 67.8342 107.786L102.54 147.506C102.54 147.506 109.354 146.597 116.229 143.117C123.831 139.269 127.748 133.551 127.748 133.551L94.8599 98.2115C94.8599 98.2115 97.4314 91.7486 97.5685 85.5686C97.7057 79.3972 95.8885 60.1972 95.7599 58.32C95.6228 56.4429 94.9971 55.4315 92.4428 55.1572C89.8885 54.8915 86.4514 58.2943 85.6028 65.4943C85.6028 65.4943 82.9457 44.1515 82.6971 42.5572C82.4314 40.8343 81.0856 38.5543 78.5828 38.4686C76.0799 38.3829 74.8714 40.5258 74.8714 40.5258C74.8714 40.5258 74.4771 36.8829 71.5714 37.0029C68.9314 37.1143 67.0114 39.3858 66.7714 41.5543L66.7628 41.5458Z" fill="#E2AF9F"/>
<path d="M73.3457 97.56C73.1485 93.6772 74.6314 89.4686 76.8171 86.3229C77.8971 84.7714 79.2171 83.3914 80.6914 82.2171C81.5142 81.5571 82.3885 80.9743 83.3057 80.4429C84.0257 80.0229 84.7114 79.7572 84.9085 78.8572C85.3371 76.86 85.3457 74.6743 85.5599 72.6514C85.7914 70.4314 86.0228 68.2029 86.2628 65.9829C86.4085 64.6029 84.8657 65.4429 84.7714 66.36C84.3171 70.6629 83.8714 74.9743 83.4171 79.2772L84.1457 78.2143C77.2199 81.9172 72.5485 88.7572 71.8799 96.6086C71.8285 97.2086 71.7857 97.8172 71.8199 98.4172C71.8799 99.6686 73.3971 98.3829 73.3542 97.5686L73.3457 97.56Z" fill="#E0A190"/>
<path d="M74.0914 41.64C74.6485 50.5543 75.2142 59.4771 75.7714 68.3914L76.0114 72.1714C76.0885 73.4228 77.5971 72.1371 77.5457 71.3228C76.9885 62.4086 76.4228 53.4857 75.8657 44.5714L75.6257 40.7914C75.5485 39.54 74.0399 40.8257 74.0914 41.64Z" fill="#E0A190"/>
<path d="M80.9142 69.9342C76.7827 70.2171 72.6427 70.4999 68.5113 70.7828C67.6885 70.8428 66.8999 72.7885 67.7827 72.7285C71.9142 72.4457 76.0542 72.1628 80.1856 71.8799C81.0085 71.8199 81.797 69.8742 80.9142 69.9342Z" fill="#E0A190"/>
<path d="M2.7428 144.283L35.0314 92.1171C35.0314 92.1171 35.0314 87.7286 36.1971 77.3486C37.3628 66.9686 37.3371 61.9029 38.3485 59.8114C39.5999 57.2143 43.1828 57.7114 44.2199 59.7857C44.2199 59.7857 45.3171 46.2943 46.0457 42.8057C46.9114 38.64 51.8999 39.4029 52.6199 40.7914C52.6199 40.7914 52.4914 38.1943 54.7457 36.6086C56.6228 35.2886 59.8199 35.5371 60.8742 38.04C61.4657 39.4457 61.5342 41.0914 61.5342 41.0914C61.5342 41.0914 63.2399 39.7114 65.4942 40.3543C68.0142 41.0657 68.2542 43.32 68.5028 46.0286C68.7514 48.7371 70.4228 69.0514 70.4228 77.3057C70.4228 85.56 71.0914 93.8143 67.7399 101.606C64.3799 109.389 56.4171 111.094 56.4171 111.094L35.8028 144.291C35.8028 144.291 10.5428 155.203 2.7428 144.291V144.283Z" fill="#ECA885"/>
<path d="M60.5486 42.1199C60.2657 50.5199 59.9828 58.9199 59.7 67.3114L59.58 70.8942C59.5628 71.3742 59.9743 71.5199 60.36 71.3485C60.8228 71.1428 61.0971 70.5171 61.1143 70.0457C61.3971 61.6457 61.68 53.2457 61.9628 44.8542L62.0828 41.2714C62.1 40.7914 61.6886 40.6457 61.3028 40.8171C60.84 41.0228 60.5657 41.6485 60.5486 42.1199Z" fill="#E18969"/>
<path d="M51.5399 41.7514C51.257 49.3114 50.9742 56.8629 50.6913 64.4229L50.5713 67.6714C50.5542 68.16 50.9656 68.2972 51.3513 68.1257C51.8142 67.92 52.0885 67.2943 52.1056 66.8229C52.3885 59.2629 52.6713 51.7114 52.9542 44.1514L53.0742 40.9029C53.0913 40.4143 52.6799 40.2772 52.2942 40.4486C51.8313 40.6543 51.557 41.28 51.5399 41.7514Z" fill="#E18969"/>
<path d="M43.2685 60.8314C43.1399 64.3714 43.0027 67.9114 42.8742 71.4514C42.857 71.94 43.2685 72.0771 43.6542 71.9057C44.117 71.7 44.3913 71.0743 44.4085 70.6028C44.537 67.0628 44.6742 63.5228 44.8027 59.9828C44.8199 59.4943 44.4085 59.3571 44.0227 59.5285C43.5599 59.7343 43.2856 60.36 43.2685 60.8314Z" fill="#E18969"/>
<path d="M70.4742 74.5972C70.4742 74.5972 73.4399 67.8515 78.8142 69.0515C83.4856 70.0886 74.5628 94.8 73.6799 97.5686C71.8114 103.449 60.2571 109.569 60.2571 109.569L70.4742 74.5972Z" fill="#ECA885"/>
</g>
</g>
<defs>
<clipPath id="clip0_1961_3631">
<rect width="132" height="132" fill="white"/>
</clipPath>
</defs>
</svg>
