<svg width="132" height="132" viewBox="0 0 132 132" fill="none" xmlns="http://www.w3.org/2000/svg">
<g clip-path="url(#clip0_1961_3493)">
<path d="M120.677 129C126.9 129 132.669 122.434 131.94 114.257L130.346 40.9286L130.123 13.1314C130.166 -1.67144 115.723 0.051416 115.723 0.051416L13.0886 5.50284C6.86571 5.50284 1.82571 10.5428 1.82571 16.7657L0 120.72C0 126.943 5.04 131.991 11.2629 131.991L120.669 129H120.677Z" fill="#FCE5F1"/>
<path d="M84.9428 19.5257C85.6028 21.3 86.5028 25.9114 80.88 30.6942C75.3343 35.4085 73.0885 32.1685 72.3514 30.4371C72.2485 30.2057 72.2228 29.9485 72.2571 29.7171C73.5943 30.7628 75.7885 30.9857 79.2514 27.9C82.6885 24.84 83.64 21.8228 83.7171 19.5171L84.0857 19.2C84.3685 18.96 84.7885 19.1142 84.9428 19.5257Z" fill="#FF0042"/>
<path d="M83.7171 19.5171C83.6486 21.8228 82.6886 24.8485 79.2514 27.8999C75.7886 30.9857 73.5943 30.7628 72.2571 29.7171C72.2571 29.6657 72.2743 29.6228 72.2829 29.5714C72.3171 29.4428 72.3771 29.3142 72.4629 29.2114C72.48 29.1942 72.4886 29.1771 72.5057 29.1599C72.5314 29.1342 72.5571 29.0999 72.5829 29.0828L83.7086 19.5171H83.7171Z" fill="white"/>
<path d="M72.5143 29.1686C72.5143 29.1686 72.48 29.2029 72.4714 29.22C72.4886 29.2029 72.4971 29.1857 72.5143 29.1686Z" fill="white"/>
<path d="M72.2571 29.7257C72.2657 29.6742 72.2743 29.6314 72.2914 29.58C72.2743 29.6228 72.2657 29.6742 72.2657 29.7257H72.2571Z" fill="white"/>
<path d="M77.1515 26.16C76.8172 26.22 76.62 26.6657 76.5857 27.0428C76.5686 27.2914 76.6115 27.9257 76.9629 27.8657C77.3143 27.8057 77.4943 27.36 77.5286 26.9828C77.5457 26.7343 77.5029 26.1 77.1515 26.16Z" fill="#D4D4D4"/>
<path d="M78.2314 25.2943C78.18 25.6971 78.4714 26.1171 78.7543 26.3143C78.9428 26.4514 79.4486 26.6743 79.5 26.2628C79.5514 25.86 79.26 25.44 78.9771 25.2428C78.7886 25.1057 78.2828 24.8828 78.2314 25.2943Z" fill="#D4D4D4"/>
<path d="M79.3543 24.5143C79.5429 24.8743 79.98 24.9858 80.2886 24.9172C80.4943 24.8743 80.9743 24.6515 80.7771 24.2743C80.58 23.8972 80.1514 23.8029 79.8429 23.8715C79.6372 23.9143 79.1572 24.1372 79.3543 24.5143Z" fill="#D4D4D4"/>
<mask id="mask0_1961_3493" style="mask-type:luminance" maskUnits="userSpaceOnUse" x="0" y="-1" width="133" height="133">
<path d="M120.677 129C126.9 129 132.669 122.434 131.94 114.257L130.346 40.9286L130.123 13.1314C130.166 -1.67144 115.723 0.051416 115.723 0.051416L13.0886 5.50284C6.86571 5.50284 1.82571 10.5428 1.82571 16.7657L0 120.72C0 126.943 5.04 131.991 11.2629 131.991L120.669 129H120.677Z" fill="white"/>
</mask>
<g mask="url(#mask0_1961_3493)">
<path d="M66 164.066C131.484 164.066 184.569 146.966 184.569 125.871C184.569 104.777 131.484 87.6771 66 87.6771C0.516354 87.6771 -52.5686 104.777 -52.5686 125.871C-52.5686 146.966 0.516354 164.066 66 164.066Z" fill="#FF0042"/>
</g>
<path d="M100.2 106.431C99.5743 111.171 81.1886 112.646 64.3372 110.417C47.4857 108.189 31.2943 102.137 31.92 97.3972C32.5457 92.6572 49.7572 91.0286 66.6 93.2572C83.4429 95.4858 100.817 101.691 100.191 106.431H100.2Z" fill="#4F4F4F"/>
<path d="M120.699 100.423C121.604 93.5903 98.122 84.846 68.2515 80.8923C38.3809 76.9385 13.4329 79.2725 12.5285 86.1054C11.624 92.9384 35.1057 101.683 64.9763 105.636C94.8468 109.59 119.795 107.256 120.699 100.423Z" fill="#D8D8D8"/>
<path d="M101.34 97.8515C100.834 101.709 82.5429 102.463 65.6914 100.234C48.84 98.0058 32.5543 92.6743 33.0686 88.8172C33.5829 84.96 50.6914 84.0515 67.5429 86.28C84.3943 88.5086 101.854 94.0029 101.349 97.8515H101.34Z" fill="#BCBCBC"/>
<path d="M63.5657 117.497C83.3627 117.497 99.4114 116.319 99.4114 114.866C99.4114 113.412 83.3627 112.234 63.5657 112.234C43.7686 112.234 27.72 113.412 27.72 114.866C27.72 116.319 43.7686 117.497 63.5657 117.497Z" fill="#E90063"/>
<path d="M118.02 71.8886L117.189 73.3372C111.411 83.3743 101.777 90.6 90.5314 93.3429L87.8143 94.0029C86.7943 94.2514 85.7657 93.5914 85.5771 92.5629L84.7714 88.2943L86.52 87.8657C97.7657 85.1229 107.4 77.8972 113.177 67.86L113.546 67.2172L117.343 69.3772C118.226 69.8829 118.534 71.0057 118.029 71.8886H118.02Z" fill="#C99D67"/>
<path d="M113.537 67.2171L113.169 67.86C107.391 77.8971 97.7657 85.1228 86.5114 87.8657L84.7629 88.2943L77.2886 48.6085C77.1172 47.7171 78.0772 47.0314 78.8657 47.4857L113.529 67.2257L113.537 67.2171Z" fill="#FF0042"/>
<path d="M113.614 70.7315C111.274 74.88 107.957 78.8743 103.92 81.4286C103.071 81.96 102.634 84.4629 103.954 83.6315C108.557 80.7257 112.337 76.26 115.003 71.5372C115.8 70.1229 114.42 69.3086 113.614 70.7315Z" fill="#B07F4A"/>
<path d="M89.6743 80.58C89.9314 80.9657 90.0857 81.5057 89.5714 81.7371C89.0314 81.9857 88.3543 81.7371 88.0114 81.2742C87.7286 80.8971 87.6171 80.34 88.1143 80.1171C88.6714 79.86 89.3143 80.1343 89.6743 80.58C90.1629 81.1885 91.1828 79.7914 90.7628 79.26C88.8086 76.8343 85.26 80.2971 86.9314 82.5943C87.7114 83.6657 89.2028 83.6314 90.1457 82.8171C91.1571 81.9428 91.5171 80.4 90.7628 79.26C90.3428 78.6257 89.2971 80.0143 89.6743 80.58Z" fill="#1D1D1B"/>
<path d="M96.8228 62.4515C94.9028 60.0686 91.4228 63.4886 93.06 65.7343C93.8228 66.7886 95.2885 66.7458 96.2143 65.9486C97.2085 65.0915 97.5685 63.5743 96.8228 62.4515C96.4028 61.8172 95.3571 63.2058 95.7343 63.7715C95.9828 64.14 96.1371 64.6458 95.6485 64.8686C95.1257 65.1086 94.4657 64.8686 94.14 64.4143C93.8743 64.0543 93.7543 63.5315 94.2257 63.3172C94.7657 63.0686 95.3914 63.3343 95.7343 63.7715C96.2228 64.38 97.2428 62.9829 96.8228 62.4515Z" fill="#1D1D1B"/>
<path d="M82.5172 53.7086C82.74 54.0514 82.9029 54.5229 82.4486 54.7286C81.9429 54.9514 81.3172 54.72 81 54.2914C80.7514 53.9572 80.6229 53.4772 81.0686 53.2714C81.5914 53.04 82.1829 53.2972 82.5172 53.7086C83.0057 54.3172 84.0257 52.92 83.6057 52.3886C81.7286 50.0572 78.3257 53.4172 79.92 55.6114C80.6657 56.64 82.0972 56.5972 82.9972 55.8172C83.9657 54.9772 84.3343 53.4857 83.6057 52.3886C83.1857 51.7543 82.14 53.1429 82.5172 53.7086Z" fill="#1D1D1B"/>
<path d="M101.366 65.5457C100.389 66.0343 99.7114 67.08 99.6514 68.1686C99.5914 69.2571 100.166 70.3628 101.091 70.9457C101.503 71.2028 101.966 71.3657 102.437 71.4771C103.174 71.6571 103.98 71.7171 104.674 71.4086C105.351 71.1 105.831 70.4828 106.174 69.8228C106.611 68.9828 106.86 68.0143 106.689 67.0886C106.517 66.1628 105.866 65.2886 104.957 65.0229C104.391 64.86 103.791 64.9371 103.209 65.0229C102.549 65.1171 101.854 65.2114 101.314 65.6057" fill="#FFBFDA"/>
<path d="M101.34 64.3115C99.2314 65.5629 97.8686 68.2715 98.9657 70.6372C100.003 72.8658 103.303 73.7315 105.291 72.2657C107.16 70.8943 108.42 67.8343 107.546 65.6058C106.551 63.0772 103.329 63.1457 101.297 64.3629C100.723 64.7057 100.174 65.4943 100.243 66.1972C100.303 66.7972 100.749 67.1829 101.34 66.8315C102.163 66.3429 103.671 66.0258 104.589 66.4629C105.737 67.0029 106.011 68.7343 105.223 69.6943C103.517 71.76 99.0429 68.16 101.391 66.7715C101.966 66.4286 102.514 65.64 102.446 64.9372C102.386 64.3286 101.94 63.9515 101.349 64.3029L101.34 64.3115Z" fill="#FE0062"/>
<path d="M86.16 67.32C85.1828 67.8086 84.5057 68.8543 84.4457 69.9429C84.3857 71.0314 84.96 72.1371 85.8857 72.72C86.2971 72.9771 86.76 73.14 87.2314 73.2514C87.9686 73.4314 88.7743 73.4914 89.4686 73.1829C90.1457 72.8743 90.6257 72.2571 90.9686 71.5971C91.4057 70.7571 91.6543 69.7886 91.4828 68.8629C91.3114 67.9371 90.66 67.0629 89.7514 66.7971C89.1857 66.6343 88.5857 66.7114 88.0028 66.7971C87.3428 66.8914 86.6486 66.9857 86.1086 67.38" fill="#FFBFDA"/>
<path d="M86.1343 66.0858C84.0257 67.3372 82.6628 70.0458 83.76 72.4115C84.7971 74.64 88.0971 75.5058 90.0857 74.04C91.9543 72.6686 93.2143 69.6086 92.34 67.38C91.3457 64.8515 88.1228 64.92 86.0914 66.1372C85.5171 66.48 84.9685 67.2686 85.0371 67.9715C85.0971 68.5715 85.5428 68.9572 86.1343 68.6058C86.9571 68.1172 88.4657 67.8 89.3828 68.2372C90.5314 68.7772 90.8057 70.5086 90.0171 71.4686C88.3114 73.5343 83.8371 69.9343 86.1857 68.5458C86.76 68.2029 87.3085 67.4143 87.24 66.7115C87.18 66.1029 86.7343 65.7258 86.1428 66.0772L86.1343 66.0858Z" fill="#FE0062"/>
<path d="M101.254 76.9543C100.423 75.06 97.8857 74.3057 95.9571 74.4686C94.68 74.58 91.6029 75.4543 92.4686 77.4257C93.3343 79.3971 95.8371 80.0743 97.7657 79.9114C99.0429 79.8 102.12 78.9257 101.254 76.9543Z" fill="#00FFA9"/>
<path d="M87.4715 63.2914C89.4172 62.58 90.3257 60.0942 90.2829 58.1657C90.2572 56.88 89.58 53.76 87.5486 54.4971C85.6029 55.2085 84.6943 57.6942 84.7372 59.6228C84.7629 60.9085 85.44 64.0285 87.4715 63.2914Z" fill="#00FFA9"/>
<path d="M18.0343 37.74C15.5657 39.2229 15.84 43.86 17.7086 45.7972C18.7628 46.8943 20.3486 47.46 21.8743 47.9915C26.0743 49.4486 30.36 50.9315 34.9114 51.1286C36.7114 51.2058 38.52 51.0858 40.32 50.9315C43.8428 50.6229 47.6486 50.0572 50.1686 47.7943C51.4028 46.68 52.2 45.2658 52.9371 43.86C54.2914 41.2629 56.04 38.9058 57.4457 36.3429C58.02 35.3058 59.0486 33.7972 58.9114 32.5629C58.7743 31.3286 57.5657 29.94 56.9743 28.9029C56.9228 28.8086 56.8629 28.7143 56.7686 28.6715C56.6914 28.6372 56.5971 28.6372 56.5114 28.6458C55.9371 28.6886 55.3714 28.7315 54.7971 28.7743" fill="#C3965F"/>
<path d="M17.5457 36C15.3172 37.62 14.2886 40.5 14.4686 43.1915C14.6657 46.2857 16.2772 48.3943 19.1057 49.5943C26.2886 52.6543 33.6686 53.94 41.4257 53.0315C44.6057 52.6543 47.88 51.8743 50.3829 49.7657C53.1686 47.4172 54.5743 43.86 56.4772 40.8429C58.0972 38.2715 60.9515 34.8086 60.72 31.56C60.6172 30.0943 59.7086 28.7143 58.8686 27.5572C57.8915 26.2115 57.3686 26.3486 55.6629 26.4772C53.7257 26.6229 51.8829 31.2 53.94 31.0543C54.3515 31.02 55.2772 30.78 55.6543 30.9257C55.0286 30.6772 55.7915 31.3715 55.9629 31.6286C56.7 32.7772 57.1972 33.3857 56.64 34.7315C55.7657 36.8743 54.1457 38.8457 52.9457 40.8257C51.7457 42.8057 50.8115 45.48 48.6686 46.7829C46.68 47.9915 44.16 48.3257 41.8886 48.5743C36.3857 49.1657 31.3372 48.54 26.0829 46.8343C23.9829 46.1486 21.24 45.6 19.5257 44.1429C18.5057 43.2772 17.1686 40.4657 18.5229 39.48C20.28 38.2029 20.1857 34.0715 17.5372 36H17.5457Z" fill="#C3965F"/>
<path d="M53.1857 27.5658C42.84 30.2315 32.4086 32.8715 21.9343 35.0058C20.8714 35.2201 19.8 35.4429 18.84 35.9486C17.88 36.4543 17.0486 37.2943 16.8172 38.3486C16.44 40.0286 17.7 41.7001 19.2086 42.5229C20.7171 43.3458 22.4657 43.6029 24.1029 44.1601C25.7057 44.7086 27.1972 45.5572 28.7486 46.2515C32.3914 47.8801 36.4714 48.6343 40.4314 48.1201C44.3914 47.6058 48.2229 45.7629 50.8886 42.7886C51.7371 41.8458 52.4571 40.8001 53.1343 39.7286C54.3772 37.7658 55.4914 35.7172 56.4429 33.6001C56.9486 32.4772 57.42 31.3115 57.5143 30.0858C57.5486 29.6401 57.5314 29.1772 57.3514 28.7743C57.0429 28.0543 56.28 27.6172 55.5171 27.4715C54.7543 27.3258 53.9571 27.4458 53.1857 27.5572" fill="#E5D2B1"/>
<path d="M18.0429 37.1828L13.6714 40.6628C13.6714 40.6628 22.9543 46.2771 40.2343 49.0714C40.2343 49.0714 59.4 37.1486 63.5572 25.2L47.82 20.4514L18.0429 37.1914V37.1828Z" fill="#F2D600"/>
<path d="M17.9143 36.7457L13.5428 40.2257C13.3286 40.3971 13.0114 40.9971 13.3543 41.2029C19.8428 45.0943 27.7543 47.1943 35.0743 48.7286C36.6686 49.0629 39.0086 50.0229 40.5343 49.3971C41.6143 48.96 42.6857 47.9657 43.6286 47.2971C47.3571 44.6743 50.94 41.82 54.2314 38.6657C58.2171 34.8514 62.0228 30.4886 63.9428 25.2343C64.0286 25.0029 64.0371 24.7114 63.7628 24.6257C60.3686 23.5971 56.9657 22.5771 53.5714 21.5486C51.72 20.9914 49.0628 19.4314 47.2371 20.2543C44.2114 21.6171 41.3314 23.5714 38.4428 25.2L25.6286 32.4L18.0343 36.6686C17.6228 36.9 17.4086 38.0571 18.0514 37.6971C24.0943 34.3028 30.1286 30.9086 36.1714 27.5143C39.5571 25.6114 42.9428 23.7086 46.3286 21.8057C46.68 21.6086 47.0571 21.3257 47.4343 21.18C47.7257 21.0686 47.8886 21.0257 47.6486 21.0257C48.8228 20.9914 50.5028 21.8914 51.6171 22.2257L63.3428 25.7657L63.1628 25.1571C60.9257 31.2686 55.98 36.1886 51.1628 40.3714C49.0543 42.1971 46.8514 43.9286 44.5971 45.5657C43.4914 46.3629 41.9228 47.8971 40.5943 48.3171C39.6943 48.6 38.7 48.1971 37.6971 48.0086C35.7257 47.64 33.7714 47.22 31.8257 46.74C28.4314 45.9 25.0714 44.8886 21.7971 43.6628C19.14 42.6686 16.4228 41.58 13.98 40.1229L13.7914 41.1L18.1628 37.62C18.5828 37.2857 18.5571 36.24 17.9143 36.7457Z" fill="#F2D600"/>
<path d="M46.4162 41.0976C49.3802 40.6905 51.524 38.4748 51.2045 36.1487C50.885 33.8225 48.2233 32.2668 45.2593 32.6738C42.2953 33.0809 40.1515 35.2966 40.471 37.6228C40.7904 39.9489 43.4522 41.5047 46.4162 41.0976Z" fill="#FF0042"/>
<path d="M50.76 36.3943C51.0772 41.4086 41.3743 42.2057 40.9543 37.3029C40.5343 32.4 49.7657 31.7657 50.7772 36.5143C50.9057 37.1143 51.7457 36.2229 51.6429 35.7686C50.3229 29.5629 39.18 31.7571 40.0286 37.9286C40.8772 44.1 52.0457 42.0257 51.66 35.8886C51.6172 35.1514 50.7257 35.9057 50.76 36.3857V36.3943Z" fill="#FF0042"/>
<path d="M53.2891 31.3557C56.2531 30.9486 58.3969 28.7329 58.0774 26.4067C57.758 24.0805 55.0962 22.5248 52.1322 22.9319C49.1682 23.339 47.0244 25.5547 47.3439 27.8808C47.6634 30.207 50.3251 31.7627 53.2891 31.3557Z" fill="#FF0042"/>
<path d="M57.6343 26.6486C57.9514 31.6628 48.2486 32.46 47.8286 27.5571C47.4086 22.6543 56.64 22.02 57.6514 26.7686C57.78 27.3686 58.62 26.4771 58.5171 26.0228C57.1971 19.8171 46.0543 22.0114 46.9029 28.1828C47.7514 34.3543 58.92 32.28 58.5343 26.1428C58.4914 25.4057 57.6 26.16 57.6343 26.64V26.6486Z" fill="#FF0042"/>
<path d="M19.1143 31.9371L16.4057 33.36C15.3514 33.9171 14.58 34.8943 14.2886 36.0514C14.1257 36.6943 14.5628 37.3457 15.2228 37.4314L16.4828 37.6114C18.2657 37.86 19.9028 38.7686 21.06 40.1486L21.1457 40.2514C22.2943 41.6228 24.0686 42.3086 25.8514 42.0686L26.5286 41.9743C27.8228 41.7943 29.1257 42.1629 30.1371 42.9857L30.4114 43.2086C32.4857 44.8886 35.2371 45.4714 37.8086 44.7771L38.3914 44.6229C39.2228 44.4 40.08 44.2971 40.9371 44.3228C43.02 44.3743 44.8971 43.0628 45.5657 41.0914C46.3628 38.7343 47.9314 36.7029 50.0057 35.3314L50.7857 34.8171C52.5428 33.6514 53.8457 31.9114 54.4457 29.8886C54.9171 28.32 56.0314 27.0257 57.5228 26.34L58.0114 26.1857C60.0343 25.5428 61.4828 23.7686 61.7228 21.66C61.8343 20.64 61.0457 19.7486 60.0257 19.74C57.7971 19.7143 55.5771 20.0571 53.46 20.7514L19.1143 31.9543V31.9371Z" fill="#00FFA9"/>
<path d="M19.1057 31.4229C17.4514 32.2972 12.2057 34.7401 14.1 37.4058C14.5457 38.0315 15.1714 37.9972 15.8657 38.1343C17.8886 38.5372 19.2 39.2058 20.6829 40.6286C22.44 42.3172 23.88 42.6858 26.2543 42.5658C29.3143 42.4115 31.1571 45.0343 34.1057 45.5229C35.4086 45.7372 36.5914 45.5829 37.86 45.3086C39.1286 45.0343 40.5343 45.0515 41.8543 44.7943C43.9114 44.3915 45.1457 42.9429 45.9686 41.1343C46.74 39.4372 47.52 37.9201 48.9514 36.6686C49.9114 35.8286 51.0686 35.2543 52.0114 34.3972C53.9829 32.6058 54.24 30.0343 55.8943 28.1572C57.5486 26.2801 60.1029 26.2029 61.4229 23.8115C62.0829 22.6115 62.7 20.6229 61.4057 19.5858C59.6571 18.1886 55.3457 19.6372 53.5629 20.1858C48.2829 21.8143 43.0543 23.6143 37.8086 25.3201C31.6114 27.3429 25.4143 29.3658 19.2171 31.3801C18.78 31.5258 18.4114 32.7001 19.0029 32.5029C28.92 29.2715 38.8371 26.0315 48.7629 22.8001C50.2457 22.3115 51.7286 21.8143 53.22 21.3429C54.8829 20.8201 58.2343 19.6029 59.8114 20.2972C63.2914 21.8315 59.76 24.7886 57.9943 25.6458C57.3771 25.9458 56.7686 26.1772 56.22 26.6229C54.72 27.8315 54.3514 29.4086 53.5629 31.0543C52.3286 33.6172 49.9971 34.4658 48.1114 36.3429C46.6629 37.7829 46.1143 39.3086 45.1714 41.0401C43.5857 43.9543 40.4229 43.8086 37.5343 44.2886C35.6143 44.6143 33.7971 44.4601 32.0486 43.5258C31.02 42.9772 30.2229 42.0943 29.1171 41.6658C28.2257 41.3229 27.3771 41.3486 26.46 41.4172C24.4371 41.5801 23.0229 41.2286 21.54 39.7629C20.7343 38.9658 20.0486 38.2458 18.9943 37.7229C18.0857 37.2772 16.9114 37.3629 16.08 36.9343C13.0029 35.3486 18.0857 32.9829 19.1314 32.4343C19.5514 32.2115 19.7657 31.0629 19.1143 31.4058L19.1057 31.4229Z" fill="#00FFA9"/>
<path d="M15.9857 34.7315L30.1457 40.1743C31.14 40.5515 32.04 41.1343 32.7857 41.8886C33.5657 42.6686 34.6714 43.0286 35.76 42.8829L38.4943 42.5058C39.18 42.4115 39.8829 42.42 40.5686 42.5229C42.0429 42.7458 43.5 42.0258 44.2114 40.7143L45.6343 38.1C46.4829 36.5486 47.6743 35.2115 49.1229 34.1915C51.1457 32.7772 52.8172 30.9172 54.0172 28.7658C54.5314 27.8401 55.2171 27.0086 56.04 26.3315L59.7343 23.2543C59.9829 23.0486 60.1114 22.7229 60.0686 22.4058C60 21.8829 59.5029 21.5143 58.98 21.6086L52.7743 22.6543C52.7229 22.6543 52.68 22.6715 52.6286 22.6886L28.9457 30.5915L15.9857 34.7315Z" fill="#00BB75"/>
<path d="M15.6686 35.2714L24.5829 38.7C26.1429 39.3 27.72 39.8829 29.2714 40.5C31.0286 41.2029 32.3829 42.9086 34.1572 43.3629C35.82 43.7829 37.6372 43.0114 39.3172 43.02C41.5714 43.0286 43.2172 42.9943 44.5372 40.9029C45.8572 38.8114 46.7572 36.5829 48.8829 34.9029C51.1457 33.12 52.7743 31.38 54.3429 28.9629C55.6543 26.94 57.5743 25.7057 59.34 24.1286C60.0429 23.5029 60.9771 22.5857 60.3 21.5743C59.6229 20.5629 57.8743 21.2486 56.94 21.4029C55.5429 21.6343 54.0943 21.78 52.7229 22.1229C46.1314 23.8029 39.6514 26.4857 33.2057 28.6371C27.5143 30.5314 21.7972 32.34 16.0886 34.1657C15.6514 34.3029 15.2829 35.4771 15.8743 35.2886C27.0857 31.7057 38.2543 28.0029 49.4229 24.2743C51.1714 23.6914 52.7571 23.1857 54.5743 22.8857C55.6543 22.7057 57.8057 21.8657 58.8257 22.1743C60.4457 22.6629 58.8257 23.4771 58.32 23.9057C57.5829 24.5229 56.8286 25.1229 56.1 25.7486C54.3086 27.3 53.4429 29.3486 51.9257 31.1229C49.9886 33.3771 47.3229 34.6971 45.7029 37.2514C44.3743 39.3514 43.8514 41.94 40.7914 41.94C39.2057 41.94 37.7914 42.18 36.2143 42.2657C33.6343 42.4114 32.4 40.4229 30.1543 39.5143C28.6629 38.9057 27.1457 38.3571 25.6457 37.7829L16.2943 34.1829C15.8057 33.9943 15.2143 35.0914 15.6686 35.2629V35.2714Z" fill="#00BB75"/>
<path d="M49.8943 36.3686C49.7829 36.8743 49.2943 37.5001 48.9686 37.8943C48.5486 38.4086 48.0343 38.7515 47.4086 38.9658C47.1257 39.0601 46.9115 39.3515 46.8686 39.6429C46.8343 39.8486 46.9115 40.1915 47.2029 40.0972C48.0943 39.7972 48.84 39.2829 49.44 38.5543C49.9886 37.8858 50.5886 37.0115 50.7772 36.1629C50.8286 35.9229 50.7172 35.6743 50.4429 35.7086C50.1686 35.7429 49.9543 36.1372 49.9029 36.3858L49.8943 36.3686Z" fill="#FE0062"/>
<path d="M16.44 26.0057C13.9714 27.4885 14.2457 32.1257 16.1143 34.0628C17.1685 35.16 18.7543 35.7257 20.28 36.2571C24.48 37.7142 28.7657 39.1971 33.3171 39.3942C35.1171 39.4714 36.9257 39.3514 38.7257 39.1971C42.2486 38.8885 46.0543 38.3228 48.5743 36.0599C49.8085 34.9457 50.6057 33.5314 51.3428 32.1257C52.6971 29.5285 54.4457 27.1714 55.8514 24.6085C56.4257 23.5714 57.4543 22.0628 57.3171 20.8285C57.18 19.5942 55.9714 18.2057 55.38 17.1685C55.3285 17.0742 55.2686 16.9799 55.1743 16.9371C55.0971 16.9028 55.0028 16.9028 54.9171 16.9114C54.3428 16.9542 53.7771 16.9971 53.2028 17.0399" fill="#C3965F"/>
<path d="M15.9514 24.2657C13.7229 25.8857 12.6943 28.7657 12.8743 31.4571C13.0714 34.5514 14.6829 36.6599 17.5114 37.8599C24.6943 40.9199 32.0743 42.2057 39.8314 41.2971C43.0114 40.9199 46.2857 40.1399 48.7886 38.0314C51.5743 35.6828 52.98 32.1257 54.8829 29.1085C56.5029 26.5371 59.3572 23.0742 59.1257 19.8257C59.0229 18.3599 58.1143 16.9799 57.2743 15.8228C56.2971 14.4771 55.7743 14.6142 54.0686 14.7428C52.1314 14.8885 50.2886 19.4657 52.3457 19.3199C52.7571 19.2857 53.6829 19.0457 54.06 19.1914C53.4343 18.9428 54.1972 19.6371 54.3686 19.8942C55.1057 21.0428 55.6029 21.6514 55.0457 22.9971C54.1714 25.1399 52.5514 27.1114 51.3514 29.0914C50.1514 31.0714 49.2171 33.7457 47.0743 35.0485C45.0857 36.2571 42.5657 36.5914 40.2943 36.8399C34.7914 37.4314 29.7429 36.8057 24.4886 35.0999C22.3886 34.4142 19.6457 33.8657 17.9314 32.4085C16.9114 31.5428 15.5743 28.7314 16.9286 27.7457C18.6857 26.4685 18.5914 22.3371 15.9429 24.2657H15.9514Z" fill="#C3965F"/>
<path d="M51.6 15.8314C41.2543 18.4971 30.8229 21.1371 20.3486 23.2714C19.2857 23.4857 18.2143 23.7085 17.2543 24.2142C16.2943 24.72 15.4629 25.56 15.2315 26.6142C14.8543 28.2942 16.1143 29.9657 17.6229 30.7885C19.1315 31.6114 20.88 31.8685 22.5172 32.4257C24.12 32.9743 25.6115 33.8228 27.1629 34.5171C30.8057 36.1457 34.8857 36.9 38.8457 36.3857C42.8057 35.8714 46.6372 34.0285 49.3029 31.0542C50.1515 30.1114 50.8715 29.0657 51.5486 27.9942C52.7915 26.0314 53.9057 23.9828 54.8572 21.8657C55.3629 20.7428 55.8343 19.5771 55.9286 18.3514C55.9629 17.9057 55.9457 17.4428 55.7657 17.04C55.4572 16.32 54.6943 15.8828 53.9315 15.7371C53.1686 15.5914 52.3715 15.7114 51.6 15.8228" fill="#E5D2B1"/>
<path d="M41.7257 33.96C42.7029 33.96 43.6543 31.6714 42.5829 31.6714C41.6057 31.6714 40.6543 33.96 41.7257 33.96Z" fill="#C3965F"/>
<path d="M39.9771 33.5914C40.9543 33.5914 41.9057 31.3029 40.8343 31.3029C39.8571 31.3029 38.9057 33.5914 39.9771 33.5914Z" fill="#C3965F"/>
<path d="M41.4343 31.8086C42.4114 31.8086 43.3628 29.52 42.2914 29.52C41.3143 29.52 40.3628 31.8086 41.4343 31.8086Z" fill="#C3965F"/>
<path d="M34.5257 24.0514C35.5028 24.0514 36.4543 21.7628 35.3828 21.7628C34.4057 21.7628 33.4543 24.0514 34.5257 24.0514Z" fill="#C3965F"/>
<path d="M36.4628 23.9742C37.44 23.9742 38.3914 21.6857 37.32 21.6857C36.3428 21.6857 35.3914 23.9742 36.4628 23.9742Z" fill="#C3965F"/>
<path d="M109.757 18.0171C109.097 18.0943 108.403 17.7257 108.12 17.1171C107.863 16.56 108 16.2171 108.634 16.1314C109.697 15.9943 111.266 17.6743 109.757 18.0171C108.849 18.2228 108.094 20.5457 109.337 20.2628C111.026 19.8857 112.26 18.1714 112.191 16.4486C112.123 14.8114 110.683 13.5857 109.063 13.8857C107.443 14.1857 106.183 15.96 106.209 17.5886C106.234 19.3457 107.649 20.46 109.337 20.2714C110.263 20.1686 111.051 17.8714 109.757 18.0257V18.0171Z" fill="#F9D7EA"/>
<path d="M28.9971 69.1715C29.0314 69.1458 29.1 69.0943 28.9971 69.1715V69.1715Z" fill="#00BB75"/>
<path d="M39.6514 64.3371C37.38 63.8486 34.98 64.5171 32.9229 65.4857C31.1914 66.3 29.5714 67.3371 28.0629 68.52C28.0629 68.52 28.0543 68.52 28.0457 68.5286C27.2057 68.5286 26.1686 68.5286 25.7829 68.5457C25.08 68.5714 23.8886 65.2628 22.8172 65.52C22.1743 65.6657 22.0286 65.8114 21.1457 66.1286C20.2543 66.4457 20.9572 66.8143 20.3057 66.9257C19.6543 67.0457 20.1429 67.7143 20.52 68.3914C20.8886 69.0686 20.28 69.1028 19.8772 69.6771C19.4657 70.2514 22.6372 70.7914 22.6372 70.7914C22.6372 70.7914 19.9972 71.1343 19.3543 71.6657C18.7114 72.1971 19.7314 72.4028 18.9429 72.78C18.1543 73.1571 18.6857 73.9543 18.7543 74.7771C18.8229 75.6 19.1829 75.1457 19.9886 75.6943C20.7857 76.2343 21.1114 75.4714 21.9514 76.2343C22.7914 76.9886 24.0943 73.8514 24.0943 73.8514C24.0943 73.8514 23.9743 74.46 23.7686 76.02C23.5629 77.58 25.3286 76.68 25.8429 77.7514C26.3572 78.8228 26.46 77.1171 27.4286 77.2886C28.3972 77.46 27.8314 75.7971 28.7657 75.8057C29.7 75.8143 28.86 74.6057 28.1572 73.1143C27.66 72.0686 28.4143 70.26 28.9114 69.2571C28.9372 69.2314 28.9714 69.2057 28.9972 69.1886C28.9972 69.1886 28.9972 69.1886 28.9886 69.1971C29.0143 69.18 29.04 69.1543 29.0657 69.1371C29.1343 69.0857 29.1943 69.0343 29.2629 68.9828C29.4086 68.8714 29.5457 68.7686 29.6914 68.6571C30.0257 68.4086 30.36 68.1686 30.7029 67.9371C31.5343 67.38 32.3914 66.8571 33.2829 66.4114C33.3943 66.36 33.5057 66.3 33.6086 66.2486C33.6257 66.24 33.6943 66.2057 33.72 66.1971C33.7886 66.1628 33.8572 66.1371 33.9257 66.1028C34.1657 65.9914 34.4057 65.8886 34.6543 65.7943C34.9114 65.6914 35.1686 65.5971 35.4257 65.5114C35.5543 65.4686 35.6743 65.4343 35.8029 65.3914C35.8629 65.3743 35.9314 65.3571 35.9914 65.34C36.0086 65.34 36.0172 65.34 36.0343 65.3314C36.0429 65.3314 36.0686 65.3228 36.0943 65.3143C36.3857 65.2457 36.6686 65.1771 36.9686 65.1343C37.1143 65.1086 37.26 65.0914 37.4057 65.0743C37.4229 65.0743 37.4486 65.0743 37.4657 65.0743C37.4657 65.0743 37.4743 65.0743 37.4829 65.0743C37.5514 65.0743 37.6286 65.0657 37.6972 65.0571C37.8429 65.0571 37.9886 65.0486 38.1257 65.0486C38.1943 65.0486 38.2714 65.0486 38.34 65.0486C38.3657 65.0486 38.3914 65.0486 38.4172 65.0486C38.4172 65.0486 38.4772 65.0486 38.5029 65.0486C38.5457 65.0486 38.5886 65.0486 38.6314 65.0571C38.7 65.0571 38.7772 65.0743 38.8457 65.0828C38.9914 65.1 39.1457 65.1343 39.2914 65.16C39.5657 65.22 40.0372 65.1428 40.1572 64.8514C40.2857 64.5343 39.8829 64.38 39.6514 64.3371ZM37.4486 65.0571C37.3886 65.0571 37.3972 65.0571 37.4486 65.0571V65.0571Z" fill="#00BB75"/>
<path d="M25.7657 69.1285C25.0114 69.1628 24.2828 68.9657 23.6228 68.6314C23.5457 68.3657 23.5628 67.9799 23.5371 67.7057C23.5114 67.3799 23.4857 67.0457 23.46 66.7199C23.4171 66.1628 22.7571 66.7371 22.7828 67.0971C22.8085 67.4485 22.8343 67.7914 22.8685 68.1428C22.4828 67.8514 22.1228 67.5085 21.8314 67.1314C21.5743 66.7971 21.0171 67.5514 21.2485 67.8428C21.5657 68.2457 21.9428 68.6142 22.3628 68.9314C22.0628 69.0085 21.72 69.0771 21.4543 69.2228C21.2657 69.3257 21.1114 69.5828 21.12 69.7971C21.1285 69.9942 21.2828 70.0971 21.4628 69.9942C21.4543 69.9942 21.4457 70.0028 21.4371 70.0028C21.4457 70.0028 21.4714 69.9857 21.4971 69.9771C21.5743 69.9514 21.6428 69.9342 21.72 69.9085C21.9343 69.8399 22.1485 69.7799 22.3628 69.7199C22.6543 69.6342 22.9457 69.5571 23.2371 69.4714C23.9228 69.8142 24.6685 70.0114 25.4314 69.9771C25.8 69.96 26.1514 69.0942 25.7571 69.1114L25.7657 69.1285Z" fill="#00FFA9"/>
<path d="M27.3943 69.3258C25.9543 70.5429 24.2657 71.94 22.4657 72.8486C22.44 72.8229 22.4057 72.8058 22.3543 72.8058C22.14 72.7972 21.6514 72.54 21.3857 72.42C21.0771 72.2915 20.7771 72.1629 20.4771 72.0343C20.1171 71.8801 19.6628 72.7029 20.0057 72.8486C20.3314 72.9858 20.6571 73.1315 20.9914 73.2601C21.0685 73.2943 21.1457 73.3286 21.2314 73.3715C20.8628 73.5 20.4857 73.6115 20.1085 73.6801C19.7657 73.7486 19.4743 74.6229 19.9457 74.5286C20.5714 74.4086 21.1885 74.2029 21.7971 73.9372C21.7714 74.0572 21.7457 74.1772 21.72 74.2972C21.6514 74.6315 21.5314 75.0086 21.54 75.3515C21.54 75.5572 21.7114 75.6343 21.8828 75.5486C22.08 75.4543 22.2171 75.1801 22.2171 74.9743C22.2171 74.9743 22.2171 74.9829 22.2171 74.9915C22.2171 74.9829 22.2171 74.9658 22.2257 74.9401C22.2428 74.8629 22.2514 74.7858 22.2685 74.7001C22.3114 74.4858 22.3543 74.2715 22.3971 74.0572C22.4228 73.9115 22.4571 73.7658 22.4914 73.6201C24.36 72.6772 26.1 71.2372 27.6 69.9772C27.9085 69.7201 27.8828 68.9229 27.4114 69.3172L27.3943 69.3258Z" fill="#00FFA9"/>
<path d="M28.0028 75.1971C28.1057 75.2828 27.9857 75.1714 27.96 75.1371C27.9171 75.0857 27.8743 75.0257 27.8314 74.9657C27.6943 74.7857 27.5657 74.6057 27.4286 74.4342C27.2486 74.1942 27.0686 73.9543 26.8971 73.7143C26.9657 72.9514 26.8971 72.18 26.5886 71.4685C26.4 71.0228 25.7914 71.7085 25.9371 72.0343C26.1857 72.6171 26.2714 73.2428 26.2286 73.8685C26.2114 73.8685 26.2028 73.8857 26.1857 73.8857C25.9714 73.9885 25.7571 74.1 25.5428 74.2028C25.2428 74.3485 24.9428 74.4857 24.6428 74.6228C24.3171 74.7771 24.1457 75.6343 24.66 75.4028C24.9857 75.2485 25.3028 75.1028 25.6286 74.9485C25.7657 74.88 25.9286 74.82 26.1 74.7428C25.9714 75.24 25.7743 75.7114 25.5171 76.1485C25.2257 76.6457 25.7143 76.9285 26.0057 76.4314C26.2886 75.96 26.5114 75.4457 26.6743 74.9057C26.7514 75.0085 26.82 75.1028 26.8971 75.2057C27.0943 75.4714 27.2914 75.8143 27.5486 76.02C27.8314 76.2514 28.3286 75.4542 28.02 75.2057L28.0028 75.1971Z" fill="#00FFA9"/>
<path d="M96.72 38.7342C99.2828 36.8914 97.4743 29.0657 94.6628 31.08C92.1 32.9228 93.9086 40.7485 96.72 38.7342Z" fill="#1C1E1B"/>
<path d="M94.5429 32.2371C95.0057 32.8714 96.96 32.3999 96.4543 31.7057C95.9914 31.0714 94.0372 31.5428 94.5429 32.2371Z" fill="white"/>
<path d="M120.514 34.5171C119.683 32.6229 117.146 31.8686 115.217 32.0314C113.94 32.1429 110.863 33.0171 111.729 34.9886C112.594 36.96 115.097 37.6371 117.026 37.4743C118.303 37.3629 121.38 36.4886 120.514 34.5171Z" fill="#00BB75"/>
<path d="M62.9143 79.6543C61.4314 80.8286 57.3257 83.1086 51.0343 79.2343C44.8371 75.42 47.2285 72.2828 48.6428 71.0486C48.84 70.8771 49.0714 70.7743 49.3028 70.74C48.72 72.3343 49.1828 74.4857 53.1857 76.8343C57.1543 79.1486 60.3171 79.1314 62.5371 78.4886L62.9485 78.7371C63.2657 78.9257 63.2485 79.38 62.9057 79.6543H62.9143Z" fill="#FF0042"/>
<path d="M62.5457 78.48C60.3257 79.1229 57.1629 79.1486 53.1943 76.8258C49.1829 74.4772 48.72 72.3258 49.3114 70.7315C49.3457 70.7315 49.3886 70.7229 49.4314 70.7229C49.4571 70.7229 49.4743 70.7229 49.5 70.7229C49.56 70.7229 49.6114 70.7229 49.6714 70.7315C49.6714 70.7315 49.68 70.7315 49.6886 70.7315C49.7486 70.74 49.8 70.7572 49.8514 70.7743C49.9114 70.7915 49.9629 70.8172 50.0229 70.8515L62.5543 78.48H62.5457Z" fill="white"/>
<path d="M49.8429 70.7743C49.7914 70.7572 49.7314 70.74 49.68 70.7314C49.74 70.74 49.7914 70.7572 49.8429 70.7743Z" fill="#FF0042"/>
<path d="M49.6629 70.7315C49.6029 70.7315 49.5515 70.7229 49.4915 70.7229C49.5515 70.7229 49.6029 70.7229 49.6629 70.7315Z" fill="#FF0042"/>
<path d="M54.2057 74.2886C54.0514 73.9886 53.5629 73.9372 53.1943 74.0229C52.9457 74.0829 52.3629 74.3229 52.5257 74.6315C52.6886 74.94 53.1686 74.9829 53.5371 74.8972C53.7857 74.8372 54.3686 74.5972 54.2057 74.2886Z" fill="#D4D4D4"/>
<path d="M55.3628 75.0514C54.9685 75.1285 54.66 75.5314 54.5485 75.8657C54.48 76.0885 54.42 76.6457 54.8314 76.5599C55.2257 76.4828 55.5343 76.0799 55.6457 75.7457C55.7143 75.5228 55.7743 74.9657 55.3628 75.0514Z" fill="#D4D4D4"/>
<path d="M56.4514 75.8743C56.1686 76.1657 56.2028 76.6114 56.3571 76.8857C56.46 77.0657 56.82 77.4514 57.12 77.1514C57.42 76.8514 57.3686 76.4143 57.2143 76.14C57.1114 75.96 56.7514 75.5743 56.4514 75.8743Z" fill="#D4D4D4"/>
<path d="M63.9686 54.4714C63.5657 54.5143 63.1286 54.2743 62.9572 53.8972C62.9229 53.8114 62.8972 53.5457 62.8715 53.6143C62.8372 53.7 62.8543 53.64 62.8972 53.6143C62.9829 53.5714 63.06 53.5457 63.1629 53.5286C63.5486 53.4772 63.9515 53.7 64.1315 54.0429C64.1915 54.1457 64.26 54.3086 64.2257 54.4372C64.2429 54.3514 64.3286 54.3429 64.2257 54.3943C64.1315 54.4372 64.0629 54.4543 63.96 54.48C63.5057 54.5829 63.1715 55.1229 63.0857 55.56C63.0172 55.9286 63.1629 56.3829 63.6172 56.28C64.8257 56.0057 65.7086 54.7543 65.6657 53.5286C65.6229 52.3886 64.6286 51.5314 63.4972 51.7372C62.3657 51.9429 61.4315 53.2457 61.4486 54.4114C61.4657 55.6372 62.4429 56.4086 63.6172 56.2714C64.3543 56.1857 64.9886 54.3514 63.96 54.4714H63.9686Z" fill="#1D1D1B"/>
<path d="M12.0086 59.2285C11.3486 59.3057 10.6543 58.9371 10.3714 58.3286C10.1143 57.7714 10.2514 57.4286 10.8857 57.3428C11.9486 57.2057 13.5171 58.8857 12.0086 59.2285C11.1 59.4343 10.3457 61.7571 11.5886 61.4743C13.2771 61.0971 14.5114 59.3828 14.4428 57.66C14.3743 56.0228 12.9343 54.7971 11.3143 55.0971C9.69427 55.3971 8.43427 57.1714 8.45998 58.8C8.4857 60.5571 9.89998 61.6714 11.5886 61.4828C12.5143 61.38 13.3028 59.0828 12.0086 59.2371V59.2285Z" fill="#F9D7EA"/>
<path d="M117.051 51.3685L116.914 51.3857L117.66 51.3171C117.523 51.3171 117.403 51.3085 117.274 51.2742L117.943 51.48C117.729 51.4114 117.566 51.3171 117.394 51.1714L117.909 51.6428C117.789 51.5142 117.703 51.3857 117.626 51.2228L117.943 51.9C117.909 51.8142 117.883 51.7285 117.874 51.6428L117.986 52.4828C117.969 52.3971 117.969 52.3028 117.969 52.2171L117.883 53.1685L117.9 53.04C117.797 53.6228 117.566 54.1542 117.206 54.6257C117.043 55.0628 116.786 55.4314 116.451 55.7314C116.126 56.0314 116.066 56.1085 116.271 55.9457L115.491 56.4942C115.56 56.4428 115.637 56.4085 115.723 56.3742L114.934 56.6914C115.071 56.6485 115.183 56.6228 115.329 56.6057L114.583 56.6742C114.72 56.6742 114.84 56.6828 114.969 56.7171L114.3 56.5114C114.514 56.58 114.677 56.6742 114.849 56.82L114.334 56.3485C114.454 56.4771 114.54 56.6057 114.617 56.7685L114.3 56.0914C114.334 56.1771 114.36 56.2628 114.369 56.3485L114.257 55.5085C114.274 55.5942 114.274 55.6885 114.274 55.7742L114.36 54.8228L114.343 54.9514C114.446 54.3685 114.677 53.8371 115.037 53.3657C115.2 52.9285 115.457 52.56 115.791 52.26C116.117 51.96 116.177 51.8828 115.971 52.0457L116.751 51.4971C116.683 51.5485 116.606 51.5828 116.52 51.6171L117.309 51.3C117.223 51.3342 117.137 51.36 117.051 51.3685C116.169 51.5657 115.303 52.32 114.746 52.9971C114.086 53.7942 113.469 54.9514 113.323 55.9885C113.203 56.7685 113.117 57.8142 113.666 58.4657C114.171 59.0657 114.823 59.2542 115.594 59.0828C116.854 58.8 117.891 57.9171 118.697 56.9485C119.751 55.68 120.489 53.8885 120.437 52.2171C120.403 51.0771 119.983 50.0571 119.066 49.3628C118.389 48.8485 117.446 48.7542 116.631 48.9257C115.431 49.1828 114.309 50.0571 113.563 51.0085C112.543 52.3028 111.72 54.0257 111.789 55.7228C111.831 56.8971 112.209 57.8485 113.109 58.6028C113.82 59.2028 114.72 59.1771 115.594 59.0742C116.469 58.9714 117.411 58.0371 117.9 57.4457C118.56 56.6485 119.177 55.4914 119.323 54.4542C119.443 53.6742 119.529 52.6285 118.98 51.9771L118.466 51.5057C118.011 51.2742 117.54 51.2228 117.051 51.36V51.3685Z" fill="#F9D7EA"/>
</g>
<defs>
<clipPath id="clip0_1961_3493">
<rect width="132" height="132" fill="white"/>
</clipPath>
</defs>
</svg>
