<svg width="32" height="33" viewBox="0 0 32 33" fill="none" xmlns="http://www.w3.org/2000/svg">
<circle cx="16" cy="16.7786" r="15.5" fill="white" stroke="#DCDCDC"/>
<path d="M16.1942 9.45912C18.646 9.45912 18.9525 9.45912 19.9485 9.53551C22.4769 9.6119 23.6262 10.8341 23.7028 13.2786C23.7794 14.2716 23.7794 14.5008 23.7794 16.9452C23.7794 19.3897 23.7794 19.6952 23.7028 20.6119C23.6262 23.0563 22.4003 24.2786 19.9485 24.355C18.9525 24.4313 18.7226 24.4313 16.1942 24.4313C13.7424 24.4313 13.4359 24.4313 12.5165 24.355C9.98812 24.2786 8.83884 23.0563 8.76222 20.6119C8.6856 19.6188 8.6856 19.3897 8.6856 16.9452C8.6856 14.5008 8.6856 14.1952 8.76222 13.2786C8.83884 10.8341 10.0647 9.6119 12.5165 9.53551C13.4359 9.45912 13.7424 9.45912 16.1942 9.45912ZM16.1942 7.77856C13.6658 7.77856 13.3593 7.77856 12.4399 7.85495C9.0687 8.00773 7.22986 9.84106 7.07662 13.2022C7 14.1188 7 14.4244 7 16.9452C7 19.4661 7 19.7716 7.07662 20.6883C7.22986 24.0494 9.0687 25.8827 12.4399 26.0355C13.3593 26.1119 13.6658 26.1119 16.1942 26.1119C18.7226 26.1119 19.0291 26.1119 19.9485 26.0355C23.3197 25.8827 25.1586 24.0494 25.3118 20.6883C25.3884 19.7716 25.3884 19.4661 25.3884 16.9452C25.3884 14.4244 25.3884 14.1188 25.3118 13.2022C25.1586 9.84106 23.3197 8.00773 19.9485 7.85495C19.0291 7.77856 18.7226 7.77856 16.1942 7.77856ZM16.1942 12.2091C13.5892 12.2091 11.4439 14.348 11.4439 16.9452C11.4439 19.5425 13.5892 21.6813 16.1942 21.6813C18.7992 21.6813 20.9445 19.5425 20.9445 16.9452C20.9445 14.348 18.7992 12.2091 16.1942 12.2091ZM16.1942 20.0008C14.5086 20.0008 13.1295 18.6258 13.1295 16.9452C13.1295 15.2647 14.5086 13.8897 16.1942 13.8897C17.8798 13.8897 19.2589 15.2647 19.2589 16.9452C19.2589 18.6258 17.8798 20.0008 16.1942 20.0008ZM21.0978 10.9869C20.4848 10.9869 20.0251 11.4452 20.0251 12.0563C20.0251 12.6675 20.4848 13.1258 21.0978 13.1258C21.7107 13.1258 22.1704 12.6675 22.1704 12.0563C22.1704 11.4452 21.7107 10.9869 21.0978 10.9869Z" fill="#FA0050"/>
</svg>
