<svg width="32" height="33" viewBox="0 0 32 33" fill="none" xmlns="http://www.w3.org/2000/svg">
<circle cx="16" cy="16.7786" r="15.5" fill="white" stroke="#DCDCDC"/>
<path fill-rule="evenodd" clip-rule="evenodd" d="M22.244 11.632L22.244 11.632L22.2546 11.6328C22.926 11.6843 23.2823 11.8114 23.4785 11.928C23.6394 12.0236 23.7805 12.1617 23.9151 12.4658C24.0674 12.8098 24.1978 13.3404 24.2803 14.1737C24.3619 14.9981 24.3884 16.0187 24.3884 17.2994C24.3884 18.5798 24.362 19.6063 24.2802 20.4379C24.1975 21.2791 24.0667 21.8189 23.9129 22.1693C23.7763 22.4806 23.6362 22.6135 23.4869 22.701C23.3032 22.8087 22.9594 22.9294 22.297 22.9632L22.29 22.9636C19.3487 23.1265 12.7452 23.1269 9.78863 22.9646C9.12808 22.9123 8.77619 22.7864 8.58157 22.6708C8.42069 22.5752 8.27959 22.437 8.14497 22.133C7.99265 21.789 7.86228 21.2584 7.77977 20.4251C7.69815 19.6007 7.67167 18.5801 7.67167 17.2994C7.67167 16.0187 7.69815 14.9981 7.77977 14.1737C7.86228 13.3404 7.99265 12.8098 8.14497 12.4658C8.27959 12.1617 8.42069 12.0236 8.58157 11.928C8.77784 11.8114 9.13406 11.6843 9.80551 11.6328L9.80552 11.6329L9.8161 11.632C12.733 11.3897 19.3271 11.3897 22.244 11.632ZM6 17.2994C6 22.4661 6.41792 24.3827 9.67768 24.6327C12.6867 24.7994 19.3734 24.7994 22.3824 24.6327C25.6422 24.4661 26.0601 22.4661 26.0601 17.2994C26.0601 12.1327 25.6422 10.2161 22.3824 9.96606C19.3734 9.71606 12.6867 9.71606 9.67768 9.96606C6.41792 10.2161 6 12.1327 6 17.2994ZM14.7312 20.0293C14.1755 20.3063 13.5225 19.9022 13.5225 19.2813V15.3158C13.5225 14.6949 14.1755 14.2908 14.7312 14.5678L18.7086 16.5505C19.3258 16.8582 19.3258 17.7389 18.7086 18.0466L14.7312 20.0293Z" fill="#FA0050"/>
</svg>
